# https://github.com/mikedh/trimesh
v 0.50500000 0.15500000 0.28500000
v 0.50430026 0.15481043 0.28739258
v 0.45430026 0.12481043 0.27039258
v 0.45500000 0.12500000 0.26800000
v 0.50370809 0.15611947 0.28682421
v 0.45370809 0.12611947 0.26982421
v 0.50360938 0.15700091 0.28555906
v 0.45360938 0.12700091 0.26855906
v 0.50404184 0.15711806 0.28408036
v 0.45404184 0.12711806 0.26708036
v 0.50484028 0.15642619 0.28295294
v 0.45484028 0.12642619 0.26595294
v 0.50569974 0.15518957 0.28260742
v 0.45569974 0.12518957 0.26560742
v 0.50629191 0.15388053 0.28317579
v 0.45629191 0.12388053 0.26617579
v 0.50639062 0.15299909 0.28444094
v 0.45639062 0.12299909 0.26744094
v 0.50595816 0.15288194 0.28591964
v 0.45595816 0.12288194 0.26891964
v 0.50515972 0.15357381 0.28704706
v 0.45515972 0.12357381 0.27004706
v 0.45500000 0.12500000 0.26800000
v 0.45383221 0.12457760 0.27016976
v 0.39383221 0.06957760 0.22716976
v 0.39500000 0.07000000 0.22500000
v 0.45317727 0.12581016 0.26950709
v 0.39317727 0.07081016 0.22650709
v 0.45321856 0.12673327 0.26826876
v 0.39321856 0.07173327 0.22526876
v 0.45394029 0.12699433 0.26692778
v 0.39394029 0.07199433 0.22392778
v 0.45506680 0.12649362 0.26599635
v 0.39506680 0.07149362 0.22299635
v 0.45616779 0.12542240 0.26583024
v 0.39616779 0.07042240 0.22283024
v 0.45682273 0.12418984 0.26649291
v 0.39682273 0.06918984 0.22349291
v 0.45678144 0.12326673 0.26773124
v 0.39678144 0.06826673 0.22473124
v 0.45605971 0.12300567 0.26907222
v 0.39605971 0.06800567 0.22607222
v 0.45493320 0.12350638 0.27000365
v 0.39493320 0.06850638 0.22700365
v 0.39500000 0.07000000 0.22500000
v 0.39396722 0.06962106 0.22724495
v 0.33696722 0.01762106 0.19224495
v 0.33800000 0.01800000 0.19000000
v 0.39326256 0.07083198 0.22659346
v 0.33626256 0.01883198 0.19159346
v 0.39322154 0.07172510 0.22533333
v 0.33622154 0.01972510 0.19033333
v 0.39385983 0.07195930 0.22394588
v 0.33685983 0.01995930 0.18894588
v 0.39493363 0.07144511 0.22296107
v 0.33793363 0.01944511 0.18796107
v 0.39603278 0.07037894 0.22275505
v 0.33903278 0.01837894 0.18775505
v 0.39673744 0.06916802 0.22340654
v 0.33973744 0.01716802 0.18840654
v 0.39677846 0.06827490 0.22466667
v 0.33977846 0.01627490 0.18966667
v 0.39614017 0.06804070 0.22605412
v 0.33914017 0.01604070 0.19105412
v 0.39506637 0.06855489 0.22703893
v 0.33806637 0.01655489 0.19203893
v 0.50500000 0.17500000 0.28500000
v 0.50422546 0.17479128 0.28736781
v 0.45422546 0.14479128 0.26836781
v 0.45500000 0.14500000 0.26600000
v 0.50365455 0.17610690 0.28679292
v 0.45365455 0.14610690 0.26779292
v 0.50359756 0.17699972 0.28553319
v 0.45359756 0.14699972 0.26653319
v 0.50407625 0.17712871 0.28406980
v 0.45407625 0.14712871 0.26506980
v 0.50490778 0.17644461 0.28296172
v 0.45490778 0.14644461 0.26396172
v 0.50577454 0.17520872 0.28263219
v 0.45577454 0.14520872 0.26363219
v 0.50634545 0.17389310 0.28320708
v 0.45634545 0.14389310 0.26420708
v 0.50640244 0.17300028 0.28446681
v 0.45640244 0.14300028 0.26546681
v 0.50592375 0.17287129 0.28593020
v 0.45592375 0.14287129 0.26693020
v 0.50509222 0.17355539 0.28703828
v 0.45509222 0.14355539 0.26803828
v 0.45500000 0.14500000 0.26600000
v 0.45384916 0.14455618 0.26817453
v 0.39384916 0.08455618 0.22417453
v 0.39500000 0.08500000 0.22200000
v 0.45314652 0.14575467 0.26749836
v 0.39314652 0.08575467 0.22349836
v 0.45315185 0.14666491 0.26624987
v 0.39315185 0.08666491 0.22224987
v 0.45386311 0.14693920 0.26490594
v 0.39386311 0.08693920 0.22090594
v 0.45500862 0.14647279 0.26397990
v 0.39500862 0.08647279 0.21997990
v 0.45615084 0.14544382 0.26382547
v 0.39615084 0.08544382 0.21982547
v 0.45685348 0.14424533 0.26450164
v 0.39685348 0.08424533 0.22050164
v 0.45684815 0.14333509 0.26575013
v 0.39684815 0.08333509 0.22175013
v 0.45613689 0.14306080 0.26709406
v 0.39613689 0.08306080 0.22309406
v 0.45499138 0.14352721 0.26802010
v 0.39499138 0.08352721 0.22402010
v 0.39500000 0.08500000 0.22200000
v 0.39409150 0.08463048 0.22429958
v 0.33709150 0.02563048 0.19229958
v 0.33800000 0.02600000 0.19000000
v 0.39328043 0.08577005 0.22364320
v 0.33628043 0.02677005 0.19164320
v 0.39312618 0.08661549 0.22235917
v 0.33612618 0.02761549 0.19035917
v 0.39368767 0.08684387 0.22093795
v 0.33668767 0.02784387 0.18893795
v 0.39475042 0.08636795 0.21992240
v 0.33775042 0.02736795 0.18792240
v 0.39590850 0.08536952 0.21970042
v 0.33890850 0.02636952 0.18770042
v 0.39671957 0.08422995 0.22035680
v 0.33971957 0.02522995 0.18835680
v 0.39687382 0.08338451 0.22164083
v 0.33987382 0.02438451 0.18964083
v 0.39631233 0.08315613 0.22306205
v 0.33931233 0.02415613 0.19106205
v 0.39524958 0.08363205 0.22407760
v 0.33824958 0.02463205 0.19207760
v 0.33800000 0.01800000 0.19000000
v 0.33777117 0.01788164 0.19086234
v 0.32277117 -0.00411836 0.18386234
v 0.32300000 -0.00400000 0.18300000
v 0.33732967 0.01828966 0.19052607
v 0.32232967 -0.00371034 0.18352607
v 0.33728083 0.01852800 0.18988164
v 0.32228083 -0.00347200 0.18288164
v 0.33765328 0.01845705 0.18930654
v 0.32265328 -0.00354295 0.18230654
v 0.33822883 0.01811836 0.18913766
v 0.32322883 -0.00388164 0.18213766
v 0.33867033 0.01771034 0.18947393
v 0.32367033 -0.00428966 0.18247393
v 0.33871917 0.01747200 0.19011836
v 0.32371917 -0.00452800 0.18311836
v 0.33834672 0.01754295 0.19069346
v 0.32334672 -0.00445705 0.18369346
v 0.33800000 0.02600000 0.19000000
v 0.33769039 0.02582337 0.19082640
v 0.32469039 0.00182337 0.18082640
v 0.32500000 0.00200000 0.18000000
v 0.33725565 0.02621175 0.19045946
v 0.32425565 0.00221175 0.18045946
v 0.33725694 0.02647609 0.18982337
v 0.32425694 0.00247609 0.17982337
v 0.33769350 0.02646154 0.18929075
v 0.32469350 0.00246154 0.17929075
v 0.33830961 0.02617663 0.18917360
v 0.32530961 0.00217663 0.17917360
v 0.33874435 0.02578825 0.18954054
v 0.32574435 0.00178825 0.17954054
v 0.33874306 0.02552391 0.19017663
v 0.32574306 0.00152391 0.18017663
v 0.33830650 0.02553846 0.19070925
v 0.32530650 0.00153846 0.18070925
f 2 1 5
f 2 5 3
f 3 5 6
f 3 6 4
f 5 1 7
f 5 7 6
f 6 7 8
f 6 8 4
f 7 1 9
f 7 9 8
f 8 9 10
f 8 10 4
f 9 1 11
f 9 11 10
f 10 11 12
f 10 12 4
f 11 1 13
f 11 13 12
f 12 13 14
f 12 14 4
f 13 1 15
f 13 15 14
f 14 15 16
f 14 16 4
f 15 1 17
f 15 17 16
f 16 17 18
f 16 18 4
f 17 1 19
f 17 19 18
f 18 19 20
f 18 20 4
f 19 1 21
f 19 21 20
f 20 21 22
f 20 22 4
f 21 1 2
f 21 2 22
f 22 2 3
f 22 3 4
f 24 23 27
f 24 27 25
f 25 27 28
f 25 28 26
f 27 23 29
f 27 29 28
f 28 29 30
f 28 30 26
f 29 23 31
f 29 31 30
f 30 31 32
f 30 32 26
f 31 23 33
f 31 33 32
f 32 33 34
f 32 34 26
f 33 23 35
f 33 35 34
f 34 35 36
f 34 36 26
f 35 23 37
f 35 37 36
f 36 37 38
f 36 38 26
f 37 23 39
f 37 39 38
f 38 39 40
f 38 40 26
f 39 23 41
f 39 41 40
f 40 41 42
f 40 42 26
f 41 23 43
f 41 43 42
f 42 43 44
f 42 44 26
f 43 23 24
f 43 24 44
f 44 24 25
f 44 25 26
f 46 45 49
f 46 49 47
f 47 49 50
f 47 50 48
f 49 45 51
f 49 51 50
f 50 51 52
f 50 52 48
f 51 45 53
f 51 53 52
f 52 53 54
f 52 54 48
f 53 45 55
f 53 55 54
f 54 55 56
f 54 56 48
f 55 45 57
f 55 57 56
f 56 57 58
f 56 58 48
f 57 45 59
f 57 59 58
f 58 59 60
f 58 60 48
f 59 45 61
f 59 61 60
f 60 61 62
f 60 62 48
f 61 45 63
f 61 63 62
f 62 63 64
f 62 64 48
f 63 45 65
f 63 65 64
f 64 65 66
f 64 66 48
f 65 45 46
f 65 46 66
f 66 46 47
f 66 47 48
f 68 67 71
f 68 71 69
f 69 71 72
f 69 72 70
f 71 67 73
f 71 73 72
f 72 73 74
f 72 74 70
f 73 67 75
f 73 75 74
f 74 75 76
f 74 76 70
f 75 67 77
f 75 77 76
f 76 77 78
f 76 78 70
f 77 67 79
f 77 79 78
f 78 79 80
f 78 80 70
f 79 67 81
f 79 81 80
f 80 81 82
f 80 82 70
f 81 67 83
f 81 83 82
f 82 83 84
f 82 84 70
f 83 67 85
f 83 85 84
f 84 85 86
f 84 86 70
f 85 67 87
f 85 87 86
f 86 87 88
f 86 88 70
f 87 67 68
f 87 68 88
f 88 68 69
f 88 69 70
f 90 89 93
f 90 93 91
f 91 93 94
f 91 94 92
f 93 89 95
f 93 95 94
f 94 95 96
f 94 96 92
f 95 89 97
f 95 97 96
f 96 97 98
f 96 98 92
f 97 89 99
f 97 99 98
f 98 99 100
f 98 100 92
f 99 89 101
f 99 101 100
f 100 101 102
f 100 102 92
f 101 89 103
f 101 103 102
f 102 103 104
f 102 104 92
f 103 89 105
f 103 105 104
f 104 105 106
f 104 106 92
f 105 89 107
f 105 107 106
f 106 107 108
f 106 108 92
f 107 89 109
f 107 109 108
f 108 109 110
f 108 110 92
f 109 89 90
f 109 90 110
f 110 90 91
f 110 91 92
f 112 111 115
f 112 115 113
f 113 115 116
f 113 116 114
f 115 111 117
f 115 117 116
f 116 117 118
f 116 118 114
f 117 111 119
f 117 119 118
f 118 119 120
f 118 120 114
f 119 111 121
f 119 121 120
f 120 121 122
f 120 122 114
f 121 111 123
f 121 123 122
f 122 123 124
f 122 124 114
f 123 111 125
f 123 125 124
f 124 125 126
f 124 126 114
f 125 111 127
f 125 127 126
f 126 127 128
f 126 128 114
f 127 111 129
f 127 129 128
f 128 129 130
f 128 130 114
f 129 111 131
f 129 131 130
f 130 131 132
f 130 132 114
f 131 111 112
f 131 112 132
f 132 112 113
f 132 113 114
f 134 133 137
f 134 137 135
f 135 137 138
f 135 138 136
f 137 133 139
f 137 139 138
f 138 139 140
f 138 140 136
f 139 133 141
f 139 141 140
f 140 141 142
f 140 142 136
f 141 133 143
f 141 143 142
f 142 143 144
f 142 144 136
f 143 133 145
f 143 145 144
f 144 145 146
f 144 146 136
f 145 133 147
f 145 147 146
f 146 147 148
f 146 148 136
f 147 133 149
f 147 149 148
f 148 149 150
f 148 150 136
f 149 133 134
f 149 134 150
f 150 134 135
f 150 135 136
f 152 151 155
f 152 155 153
f 153 155 156
f 153 156 154
f 155 151 157
f 155 157 156
f 156 157 158
f 156 158 154
f 157 151 159
f 157 159 158
f 158 159 160
f 158 160 154
f 159 151 161
f 159 161 160
f 160 161 162
f 160 162 154
f 161 151 163
f 161 163 162
f 162 163 164
f 162 164 154
f 163 151 165
f 163 165 164
f 164 165 166
f 164 166 154
f 165 151 167
f 165 167 166
f 166 167 168
f 166 168 154
f 167 151 152
f 167 152 168
f 168 152 153
f 168 153 154

