# https://github.com/mikedh/trimesh
v 0.52020000 -0.13700000 0.29200000
v 0.51955563 -0.13700000 0.29355563
v 0.51800000 -0.13700000 0.29420000
v 0.51644437 -0.13700000 0.29355563
v 0.51580000 -0.13700000 0.29200000
v 0.51644437 -0.13700000 0.29044437
v 0.51800000 -0.13700000 0.28980000
v 0.51955563 -0.13700000 0.29044437
v 0.51968207 -0.13306595 0.29200000
v 0.51905966 -0.13323272 0.29355563
v 0.51755704 -0.13363535 0.29420000
v 0.51605441 -0.13403798 0.29355563
v 0.51543200 -0.13420475 0.29200000
v 0.51605441 -0.13403798 0.29044437
v 0.51755704 -0.13363535 0.28980000
v 0.51905966 -0.13323272 0.29044437
v 0.51816359 -0.12940000 0.29200000
v 0.51760555 -0.12972218 0.29355563
v 0.51625833 -0.13050000 0.29420000
v 0.51491111 -0.13127782 0.29355563
v 0.51435307 -0.13160000 0.29200000
v 0.51491111 -0.13127782 0.29044437
v 0.51625833 -0.13050000 0.28980000
v 0.51760555 -0.12972218 0.29044437
v 0.51574802 -0.12625198 0.29200000
v 0.51529239 -0.12670761 0.29355563
v 0.51419239 -0.12780761 0.29420000
v 0.51309239 -0.12890761 0.29355563
v 0.51263675 -0.12936325 0.29200000
v 0.51309239 -0.12890761 0.29044437
v 0.51419239 -0.12780761 0.28980000
v 0.51529239 -0.12670761 0.29044437
v 0.51260000 -0.12383641 0.29200000
v 0.51227782 -0.12439445 0.29355563
v 0.51150000 -0.12574167 0.29420000
v 0.51072218 -0.12708889 0.29355563
v 0.51040000 -0.12764693 0.29200000
v 0.51072218 -0.12708889 0.29044437
v 0.51150000 -0.12574167 0.28980000
v 0.51227782 -0.12439445 0.29044437
v 0.50893405 -0.12231793 0.29200000
v 0.50876728 -0.12294034 0.29355563
v 0.50836465 -0.12444296 0.29420000
v 0.50796202 -0.12594559 0.29355563
v 0.50779525 -0.12656800 0.29200000
v 0.50796202 -0.12594559 0.29044437
v 0.50836465 -0.12444296 0.28980000
v 0.50876728 -0.12294034 0.29044437
v 0.50500000 -0.12180000 0.29200000
v 0.50500000 -0.12244437 0.29355563
v 0.50500000 -0.12400000 0.29420000
v 0.50500000 -0.12555563 0.29355563
v 0.50500000 -0.12620000 0.29200000
v 0.50500000 -0.12555563 0.29044437
v 0.50500000 -0.12400000 0.28980000
v 0.50500000 -0.12244437 0.29044437
v 0.50106595 -0.12231793 0.29200000
v 0.50123272 -0.12294034 0.29355563
v 0.50163535 -0.12444296 0.29420000
v 0.50203798 -0.12594559 0.29355563
v 0.50220475 -0.12656800 0.29200000
v 0.50203798 -0.12594559 0.29044437
v 0.50163535 -0.12444296 0.28980000
v 0.50123272 -0.12294034 0.29044437
v 0.49740000 -0.12383641 0.29200000
v 0.49772218 -0.12439445 0.29355563
v 0.49850000 -0.12574167 0.29420000
v 0.49927782 -0.12708889 0.29355563
v 0.49960000 -0.12764693 0.29200000
v 0.49927782 -0.12708889 0.29044437
v 0.49850000 -0.12574167 0.28980000
v 0.49772218 -0.12439445 0.29044437
v 0.49425198 -0.12625198 0.29200000
v 0.49470761 -0.12670761 0.29355563
v 0.49580761 -0.12780761 0.29420000
v 0.49690761 -0.12890761 0.29355563
v 0.49736325 -0.12936325 0.29200000
v 0.49690761 -0.12890761 0.29044437
v 0.49580761 -0.12780761 0.28980000
v 0.49470761 -0.12670761 0.29044437
v 0.49183641 -0.12940000 0.29200000
v 0.49239445 -0.12972218 0.29355563
v 0.49374167 -0.13050000 0.29420000
v 0.49508889 -0.13127782 0.29355563
v 0.49564693 -0.13160000 0.29200000
v 0.49508889 -0.13127782 0.29044437
v 0.49374167 -0.13050000 0.28980000
v 0.49239445 -0.12972218 0.29044437
v 0.49031793 -0.13306595 0.29200000
v 0.49094034 -0.13323272 0.29355563
v 0.49244296 -0.13363535 0.29420000
v 0.49394559 -0.13403798 0.29355563
v 0.49456800 -0.13420475 0.29200000
v 0.49394559 -0.13403798 0.29044437
v 0.49244296 -0.13363535 0.28980000
v 0.49094034 -0.13323272 0.29044437
v 0.48980000 -0.13700000 0.29200000
v 0.49044437 -0.13700000 0.29355563
v 0.49200000 -0.13700000 0.29420000
v 0.49355563 -0.13700000 0.29355563
v 0.49420000 -0.13700000 0.29200000
v 0.49355563 -0.13700000 0.29044437
v 0.49200000 -0.13700000 0.28980000
v 0.49044437 -0.13700000 0.29044437
v 0.49031793 -0.14093405 0.29200000
v 0.49094034 -0.14076728 0.29355563
v 0.49244296 -0.14036465 0.29420000
v 0.49394559 -0.13996202 0.29355563
v 0.49456800 -0.13979525 0.29200000
v 0.49394559 -0.13996202 0.29044437
v 0.49244296 -0.14036465 0.28980000
v 0.49094034 -0.14076728 0.29044437
v 0.49183641 -0.14460000 0.29200000
v 0.49239445 -0.14427782 0.29355563
v 0.49374167 -0.14350000 0.29420000
v 0.49508889 -0.14272218 0.29355563
v 0.49564693 -0.14240000 0.29200000
v 0.49508889 -0.14272218 0.29044437
v 0.49374167 -0.14350000 0.28980000
v 0.49239445 -0.14427782 0.29044437
v 0.49425198 -0.14774802 0.29200000
v 0.49470761 -0.14729239 0.29355563
v 0.49580761 -0.14619239 0.29420000
v 0.49690761 -0.14509239 0.29355563
v 0.49736325 -0.14463675 0.29200000
v 0.49690761 -0.14509239 0.29044437
v 0.49580761 -0.14619239 0.28980000
v 0.49470761 -0.14729239 0.29044437
v 0.49740000 -0.15016359 0.29200000
v 0.49772218 -0.14960555 0.29355563
v 0.49850000 -0.14825833 0.29420000
v 0.49927782 -0.14691111 0.29355563
v 0.49960000 -0.14635307 0.29200000
v 0.49927782 -0.14691111 0.29044437
v 0.49850000 -0.14825833 0.28980000
v 0.49772218 -0.14960555 0.29044437
v 0.50106595 -0.15168207 0.29200000
v 0.50123272 -0.15105966 0.29355563
v 0.50163535 -0.14955704 0.29420000
v 0.50203798 -0.14805441 0.29355563
v 0.50220475 -0.14743200 0.29200000
v 0.50203798 -0.14805441 0.29044437
v 0.50163535 -0.14955704 0.28980000
v 0.50123272 -0.15105966 0.29044437
v 0.50500000 -0.15220000 0.29200000
v 0.50500000 -0.15155563 0.29355563
v 0.50500000 -0.15000000 0.29420000
v 0.50500000 -0.14844437 0.29355563
v 0.50500000 -0.14780000 0.29200000
v 0.50500000 -0.14844437 0.29044437
v 0.50500000 -0.15000000 0.28980000
v 0.50500000 -0.15155563 0.29044437
v 0.50893405 -0.15168207 0.29200000
v 0.50876728 -0.15105966 0.29355563
v 0.50836465 -0.14955704 0.29420000
v 0.50796202 -0.14805441 0.29355563
v 0.50779525 -0.14743200 0.29200000
v 0.50796202 -0.14805441 0.29044437
v 0.50836465 -0.14955704 0.28980000
v 0.50876728 -0.15105966 0.29044437
v 0.51260000 -0.15016359 0.29200000
v 0.51227782 -0.14960555 0.29355563
v 0.51150000 -0.14825833 0.29420000
v 0.51072218 -0.14691111 0.29355563
v 0.51040000 -0.14635307 0.29200000
v 0.51072218 -0.14691111 0.29044437
v 0.51150000 -0.14825833 0.28980000
v 0.51227782 -0.14960555 0.29044437
v 0.51574802 -0.14774802 0.29200000
v 0.51529239 -0.14729239 0.29355563
v 0.51419239 -0.14619239 0.29420000
v 0.51309239 -0.14509239 0.29355563
v 0.51263675 -0.14463675 0.29200000
v 0.51309239 -0.14509239 0.29044437
v 0.51419239 -0.14619239 0.28980000
v 0.51529239 -0.14729239 0.29044437
v 0.51816359 -0.14460000 0.29200000
v 0.51760555 -0.14427782 0.29355563
v 0.51625833 -0.14350000 0.29420000
v 0.51491111 -0.14272218 0.29355563
v 0.51435307 -0.14240000 0.29200000
v 0.51491111 -0.14272218 0.29044437
v 0.51625833 -0.14350000 0.28980000
v 0.51760555 -0.14427782 0.29044437
v 0.51968207 -0.14093405 0.29200000
v 0.51905966 -0.14076728 0.29355563
v 0.51755704 -0.14036465 0.29420000
v 0.51605441 -0.13996202 0.29355563
v 0.51543200 -0.13979525 0.29200000
v 0.51605441 -0.13996202 0.29044437
v 0.51755704 -0.14036465 0.28980000
v 0.51905966 -0.14076728 0.29044437
v 0.52020000 -0.16900000 0.29200000
v 0.51955563 -0.16900000 0.29355563
v 0.51800000 -0.16900000 0.29420000
v 0.51644437 -0.16900000 0.29355563
v 0.51580000 -0.16900000 0.29200000
v 0.51644437 -0.16900000 0.29044437
v 0.51800000 -0.16900000 0.28980000
v 0.51955563 -0.16900000 0.29044437
v 0.51968207 -0.16506595 0.29200000
v 0.51905966 -0.16523272 0.29355563
v 0.51755704 -0.16563535 0.29420000
v 0.51605441 -0.16603798 0.29355563
v 0.51543200 -0.16620475 0.29200000
v 0.51605441 -0.16603798 0.29044437
v 0.51755704 -0.16563535 0.28980000
v 0.51905966 -0.16523272 0.29044437
v 0.51816359 -0.16140000 0.29200000
v 0.51760555 -0.16172218 0.29355563
v 0.51625833 -0.16250000 0.29420000
v 0.51491111 -0.16327782 0.29355563
v 0.51435307 -0.16360000 0.29200000
v 0.51491111 -0.16327782 0.29044437
v 0.51625833 -0.16250000 0.28980000
v 0.51760555 -0.16172218 0.29044437
v 0.51574802 -0.15825198 0.29200000
v 0.51529239 -0.15870761 0.29355563
v 0.51419239 -0.15980761 0.29420000
v 0.51309239 -0.16090761 0.29355563
v 0.51263675 -0.16136325 0.29200000
v 0.51309239 -0.16090761 0.29044437
v 0.51419239 -0.15980761 0.28980000
v 0.51529239 -0.15870761 0.29044437
v 0.51260000 -0.15583641 0.29200000
v 0.51227782 -0.15639445 0.29355563
v 0.51150000 -0.15774167 0.29420000
v 0.51072218 -0.15908889 0.29355563
v 0.51040000 -0.15964693 0.29200000
v 0.51072218 -0.15908889 0.29044437
v 0.51150000 -0.15774167 0.28980000
v 0.51227782 -0.15639445 0.29044437
v 0.50893405 -0.15431793 0.29200000
v 0.50876728 -0.15494034 0.29355563
v 0.50836465 -0.15644296 0.29420000
v 0.50796202 -0.15794559 0.29355563
v 0.50779525 -0.15856800 0.29200000
v 0.50796202 -0.15794559 0.29044437
v 0.50836465 -0.15644296 0.28980000
v 0.50876728 -0.15494034 0.29044437
v 0.50500000 -0.15380000 0.29200000
v 0.50500000 -0.15444437 0.29355563
v 0.50500000 -0.15600000 0.29420000
v 0.50500000 -0.15755563 0.29355563
v 0.50500000 -0.15820000 0.29200000
v 0.50500000 -0.15755563 0.29044437
v 0.50500000 -0.15600000 0.28980000
v 0.50500000 -0.15444437 0.29044437
v 0.50106595 -0.15431793 0.29200000
v 0.50123272 -0.15494034 0.29355563
v 0.50163535 -0.15644296 0.29420000
v 0.50203798 -0.15794559 0.29355563
v 0.50220475 -0.15856800 0.29200000
v 0.50203798 -0.15794559 0.29044437
v 0.50163535 -0.15644296 0.28980000
v 0.50123272 -0.15494034 0.29044437
v 0.49740000 -0.15583641 0.29200000
v 0.49772218 -0.15639445 0.29355563
v 0.49850000 -0.15774167 0.29420000
v 0.49927782 -0.15908889 0.29355563
v 0.49960000 -0.15964693 0.29200000
v 0.49927782 -0.15908889 0.29044437
v 0.49850000 -0.15774167 0.28980000
v 0.49772218 -0.15639445 0.29044437
v 0.49425198 -0.15825198 0.29200000
v 0.49470761 -0.15870761 0.29355563
v 0.49580761 -0.15980761 0.29420000
v 0.49690761 -0.16090761 0.29355563
v 0.49736325 -0.16136325 0.29200000
v 0.49690761 -0.16090761 0.29044437
v 0.49580761 -0.15980761 0.28980000
v 0.49470761 -0.15870761 0.29044437
v 0.49183641 -0.16140000 0.29200000
v 0.49239445 -0.16172218 0.29355563
v 0.49374167 -0.16250000 0.29420000
v 0.49508889 -0.16327782 0.29355563
v 0.49564693 -0.16360000 0.29200000
v 0.49508889 -0.16327782 0.29044437
v 0.49374167 -0.16250000 0.28980000
v 0.49239445 -0.16172218 0.29044437
v 0.49031793 -0.16506595 0.29200000
v 0.49094034 -0.16523272 0.29355563
v 0.49244296 -0.16563535 0.29420000
v 0.49394559 -0.16603798 0.29355563
v 0.49456800 -0.16620475 0.29200000
v 0.49394559 -0.16603798 0.29044437
v 0.49244296 -0.16563535 0.28980000
v 0.49094034 -0.16523272 0.29044437
v 0.48980000 -0.16900000 0.29200000
v 0.49044437 -0.16900000 0.29355563
v 0.49200000 -0.16900000 0.29420000
v 0.49355563 -0.16900000 0.29355563
v 0.49420000 -0.16900000 0.29200000
v 0.49355563 -0.16900000 0.29044437
v 0.49200000 -0.16900000 0.28980000
v 0.49044437 -0.16900000 0.29044437
v 0.49031793 -0.17293405 0.29200000
v 0.49094034 -0.17276728 0.29355563
v 0.49244296 -0.17236465 0.29420000
v 0.49394559 -0.17196202 0.29355563
v 0.49456800 -0.17179525 0.29200000
v 0.49394559 -0.17196202 0.29044437
v 0.49244296 -0.17236465 0.28980000
v 0.49094034 -0.17276728 0.29044437
v 0.49183641 -0.17660000 0.29200000
v 0.49239445 -0.17627782 0.29355563
v 0.49374167 -0.17550000 0.29420000
v 0.49508889 -0.17472218 0.29355563
v 0.49564693 -0.17440000 0.29200000
v 0.49508889 -0.17472218 0.29044437
v 0.49374167 -0.17550000 0.28980000
v 0.49239445 -0.17627782 0.29044437
v 0.49425198 -0.17974802 0.29200000
v 0.49470761 -0.17929239 0.29355563
v 0.49580761 -0.17819239 0.29420000
v 0.49690761 -0.17709239 0.29355563
v 0.49736325 -0.17663675 0.29200000
v 0.49690761 -0.17709239 0.29044437
v 0.49580761 -0.17819239 0.28980000
v 0.49470761 -0.17929239 0.29044437
v 0.49740000 -0.18216359 0.29200000
v 0.49772218 -0.18160555 0.29355563
v 0.49850000 -0.18025833 0.29420000
v 0.49927782 -0.17891111 0.29355563
v 0.49960000 -0.17835307 0.29200000
v 0.49927782 -0.17891111 0.29044437
v 0.49850000 -0.18025833 0.28980000
v 0.49772218 -0.18160555 0.29044437
v 0.50106595 -0.18368207 0.29200000
v 0.50123272 -0.18305966 0.29355563
v 0.50163535 -0.18155704 0.29420000
v 0.50203798 -0.18005441 0.29355563
v 0.50220475 -0.17943200 0.29200000
v 0.50203798 -0.18005441 0.29044437
v 0.50163535 -0.18155704 0.28980000
v 0.50123272 -0.18305966 0.29044437
v 0.50500000 -0.18420000 0.29200000
v 0.50500000 -0.18355563 0.29355563
v 0.50500000 -0.18200000 0.29420000
v 0.50500000 -0.18044437 0.29355563
v 0.50500000 -0.17980000 0.29200000
v 0.50500000 -0.18044437 0.29044437
v 0.50500000 -0.18200000 0.28980000
v 0.50500000 -0.18355563 0.29044437
v 0.50893405 -0.18368207 0.29200000
v 0.50876728 -0.18305966 0.29355563
v 0.50836465 -0.18155704 0.29420000
v 0.50796202 -0.18005441 0.29355563
v 0.50779525 -0.17943200 0.29200000
v 0.50796202 -0.18005441 0.29044437
v 0.50836465 -0.18155704 0.28980000
v 0.50876728 -0.18305966 0.29044437
v 0.51260000 -0.18216359 0.29200000
v 0.51227782 -0.18160555 0.29355563
v 0.51150000 -0.18025833 0.29420000
v 0.51072218 -0.17891111 0.29355563
v 0.51040000 -0.17835307 0.29200000
v 0.51072218 -0.17891111 0.29044437
v 0.51150000 -0.18025833 0.28980000
v 0.51227782 -0.18160555 0.29044437
v 0.51574802 -0.17974802 0.29200000
v 0.51529239 -0.17929239 0.29355563
v 0.51419239 -0.17819239 0.29420000
v 0.51309239 -0.17709239 0.29355563
v 0.51263675 -0.17663675 0.29200000
v 0.51309239 -0.17709239 0.29044437
v 0.51419239 -0.17819239 0.28980000
v 0.51529239 -0.17929239 0.29044437
v 0.51816359 -0.17660000 0.29200000
v 0.51760555 -0.17627782 0.29355563
v 0.51625833 -0.17550000 0.29420000
v 0.51491111 -0.17472218 0.29355563
v 0.51435307 -0.17440000 0.29200000
v 0.51491111 -0.17472218 0.29044437
v 0.51625833 -0.17550000 0.28980000
v 0.51760555 -0.17627782 0.29044437
v 0.51968207 -0.17293405 0.29200000
v 0.51905966 -0.17276728 0.29355563
v 0.51755704 -0.17236465 0.29420000
v 0.51605441 -0.17196202 0.29355563
v 0.51543200 -0.17179525 0.29200000
v 0.51605441 -0.17196202 0.29044437
v 0.51755704 -0.17236465 0.28980000
v 0.51905966 -0.17276728 0.29044437
v 0.49300000 -0.13700000 0.29100000
v 0.49165338 -0.13666636 0.29343214
v 0.42365338 -0.09766636 0.25043214
v 0.42500000 -0.09800000 0.24800000
v 0.49262846 -0.13526215 0.29316375
v 0.42462846 -0.09626215 0.25016375
v 0.49374545 -0.13452173 0.29206888
v 0.42574545 -0.09552173 0.24906888
v 0.49457770 -0.13472794 0.29056574
v 0.42657770 -0.09572794 0.24756574
v 0.49480733 -0.13580199 0.28922847
v 0.42680733 -0.09680199 0.24622847
v 0.49434662 -0.13733364 0.28856786
v 0.42634662 -0.09833364 0.24556786
v 0.49337154 -0.13873785 0.28883625
v 0.42537154 -0.09973785 0.24583625
v 0.49225455 -0.13947827 0.28993112
v 0.42425455 -0.10047827 0.24693112
v 0.49142230 -0.13927206 0.29143426
v 0.42342230 -0.10027206 0.24843426
v 0.49119267 -0.13819801 0.29277153
v 0.42319267 -0.09919801 0.24977153
v 0.49300000 -0.16900000 0.29100000
v 0.49187795 -0.16854555 0.29352477
v 0.42387795 -0.09754555 0.25052477
v 0.42500000 -0.09800000 0.24800000
v 0.49318123 -0.16742760 0.29330970
v 0.42518123 -0.09642760 0.25030970
v 0.49441528 -0.16691025 0.29221240
v 0.42641528 -0.09591025 0.24921240
v 0.49510875 -0.16719111 0.29065201
v 0.42710875 -0.09619111 0.24765201
v 0.49499675 -0.16816291 0.28922453
v 0.42699675 -0.09716291 0.24622453
v 0.49412205 -0.16945445 0.28847523
v 0.42612205 -0.09845445 0.24547523
v 0.49281877 -0.17057240 0.28869030
v 0.42481877 -0.09957240 0.24569030
v 0.49158472 -0.17108975 0.28978760
v 0.42358472 -0.10008975 0.24678760
v 0.49089125 -0.17080889 0.29134799
v 0.42289125 -0.09980889 0.24834799
v 0.49100325 -0.16983709 0.29277547
v 0.42300325 -0.09883709 0.24977547
v 0.42237134 -0.09374675 0.24800000
v 0.42762866 -0.09374675 0.24800000
v 0.42237134 -0.10225325 0.24800000
v 0.42762866 -0.10225325 0.24800000
v 0.42500000 -0.10062866 0.25225325
v 0.42500000 -0.09537134 0.25225325
v 0.42500000 -0.10062866 0.24374675
v 0.42500000 -0.09537134 0.24374675
v 0.42925325 -0.09800000 0.24537134
v 0.42925325 -0.09800000 0.25062866
v 0.42074675 -0.09800000 0.24537134
v 0.42074675 -0.09800000 0.25062866
v 0.42500000 -0.09300000 0.24800000
v 0.42500000 -0.10300000 0.24800000
v 0.42345492 -0.10204508 0.25050000
v 0.42654508 -0.10204508 0.25050000
v 0.42345492 -0.09395492 0.25050000
v 0.42654508 -0.09395492 0.25050000
v 0.42500000 -0.09800000 0.25300000
v 0.42345492 -0.10204508 0.24550000
v 0.42654508 -0.10204508 0.24550000
v 0.42345492 -0.09395492 0.24550000
v 0.42654508 -0.09395492 0.24550000
v 0.42500000 -0.09800000 0.24300000
v 0.42904508 -0.09550000 0.24645492
v 0.42904508 -0.10050000 0.24645492
v 0.42750000 -0.09954508 0.24395492
v 0.42750000 -0.09645492 0.24395492
v 0.42904508 -0.09550000 0.24954508
v 0.42904508 -0.10050000 0.24954508
v 0.42750000 -0.09954508 0.25204508
v 0.42750000 -0.09645492 0.25204508
v 0.43000000 -0.09800000 0.24800000
v 0.42095492 -0.09550000 0.24645492
v 0.42095492 -0.10050000 0.24645492
v 0.42250000 -0.09954508 0.24395492
v 0.42250000 -0.09645492 0.24395492
v 0.42095492 -0.09550000 0.24954508
v 0.42095492 -0.10050000 0.24954508
v 0.42250000 -0.09954508 0.25204508
v 0.42250000 -0.09645492 0.25204508
v 0.42000000 -0.09800000 0.24800000
v 0.42363367 -0.09319031 0.24800000
v 0.42636633 -0.09319031 0.24800000
v 0.42363367 -0.10280969 0.24800000
v 0.42636633 -0.10280969 0.24800000
v 0.42283056 -0.10231334 0.24929946
v 0.42419689 -0.10146890 0.25151023
v 0.42418770 -0.10275528 0.24931433
v 0.42716944 -0.10231334 0.24929946
v 0.42580311 -0.10146890 0.25151023
v 0.42581230 -0.10275528 0.24931433
v 0.42500000 -0.10225325 0.25062866
v 0.42283056 -0.09368666 0.24929946
v 0.42419689 -0.09453110 0.25151023
v 0.42418770 -0.09324472 0.24931433
v 0.42716944 -0.09368666 0.24929946
v 0.42580311 -0.09453110 0.25151023
v 0.42581230 -0.09324472 0.24931433
v 0.42500000 -0.09374675 0.25062866
v 0.42500000 -0.09936633 0.25280969
v 0.42500000 -0.09663367 0.25280969
v 0.42283056 -0.10231334 0.24670054
v 0.42419689 -0.10146890 0.24448977
v 0.42418770 -0.10275528 0.24668567
v 0.42716944 -0.10231334 0.24670054
v 0.42580311 -0.10146890 0.24448977
v 0.42581230 -0.10275528 0.24668567
v 0.42500000 -0.10225325 0.24537134
v 0.42283056 -0.09368666 0.24670054
v 0.42419689 -0.09453110 0.24448977
v 0.42418770 -0.09324472 0.24668567
v 0.42716944 -0.09368666 0.24670054
v 0.42580311 -0.09453110 0.24448977
v 0.42581230 -0.09324472 0.24668567
v 0.42500000 -0.09374675 0.24537134
v 0.42500000 -0.09936633 0.24319031
v 0.42500000 -0.09663367 0.24319031
v 0.42846890 -0.09448977 0.24719689
v 0.42931334 -0.09670054 0.24583056
v 0.42793893 -0.09455905 0.24587337
v 0.42846890 -0.10151023 0.24719689
v 0.42931334 -0.09929946 0.24583056
v 0.42793893 -0.10144095 0.24587337
v 0.42629946 -0.10016944 0.24368666
v 0.42851023 -0.09880311 0.24453110
v 0.42712663 -0.10093893 0.24455905
v 0.42631433 -0.09881230 0.24324472
v 0.42844095 -0.10012663 0.24506107
v 0.42629946 -0.09583056 0.24368666
v 0.42851023 -0.09719689 0.24453110
v 0.42712663 -0.09506107 0.24455905
v 0.42631433 -0.09718770 0.24324472
v 0.42844095 -0.09587337 0.24506107
v 0.42762866 -0.09800000 0.24374675
v 0.42846890 -0.09448977 0.24880311
v 0.42931334 -0.09670054 0.25016944
v 0.42793893 -0.09455905 0.25012663
v 0.42925325 -0.09537134 0.24800000
v 0.42846890 -0.10151023 0.24880311
v 0.42931334 -0.09929946 0.25016944
v 0.42793893 -0.10144095 0.25012663
v 0.42925325 -0.10062866 0.24800000
v 0.42629946 -0.10016944 0.25231334
v 0.42851023 -0.09880311 0.25146890
v 0.42712663 -0.10093893 0.25144095
v 0.42631433 -0.09881230 0.25275528
v 0.42844095 -0.10012663 0.25093893
v 0.42629946 -0.09583056 0.25231334
v 0.42851023 -0.09719689 0.25146890
v 0.42712663 -0.09506107 0.25144095
v 0.42631433 -0.09718770 0.25275528
v 0.42844095 -0.09587337 0.25093893
v 0.42762866 -0.09800000 0.25225325
v 0.42980969 -0.09800000 0.24663367
v 0.42980969 -0.09800000 0.24936633
v 0.42975528 -0.09668567 0.24718770
v 0.42975528 -0.09931433 0.24718770
v 0.42975528 -0.09668567 0.24881230
v 0.42975528 -0.09931433 0.24881230
v 0.42153110 -0.09448977 0.24719689
v 0.42068666 -0.09670054 0.24583056
v 0.42206107 -0.09455905 0.24587337
v 0.42153110 -0.10151023 0.24719689
v 0.42068666 -0.09929946 0.24583056
v 0.42206107 -0.10144095 0.24587337
v 0.42370054 -0.10016944 0.24368666
v 0.42148977 -0.09880311 0.24453110
v 0.42287337 -0.10093893 0.24455905
v 0.42368567 -0.09881230 0.24324472
v 0.42155905 -0.10012663 0.24506107
v 0.42370054 -0.09583056 0.24368666
v 0.42148977 -0.09719689 0.24453110
v 0.42287337 -0.09506107 0.24455905
v 0.42368567 -0.09718770 0.24324472
v 0.42155905 -0.09587337 0.24506107
v 0.42237134 -0.09800000 0.24374675
v 0.42153110 -0.09448977 0.24880311
v 0.42068666 -0.09670054 0.25016944
v 0.42206107 -0.09455905 0.25012663
v 0.42074675 -0.09537134 0.24800000
v 0.42153110 -0.10151023 0.24880311
v 0.42068666 -0.09929946 0.25016944
v 0.42206107 -0.10144095 0.25012663
v 0.42074675 -0.10062866 0.24800000
v 0.42370054 -0.10016944 0.25231334
v 0.42148977 -0.09880311 0.25146890
v 0.42287337 -0.10093893 0.25144095
v 0.42368567 -0.09881230 0.25275528
v 0.42155905 -0.10012663 0.25093893
v 0.42370054 -0.09583056 0.25231334
v 0.42148977 -0.09719689 0.25146890
v 0.42287337 -0.09506107 0.25144095
v 0.42368567 -0.09718770 0.25275528
v 0.42155905 -0.09587337 0.25093893
v 0.42237134 -0.09800000 0.25225325
v 0.42019031 -0.09800000 0.24663367
v 0.42019031 -0.09800000 0.24936633
v 0.42024472 -0.09668567 0.24718770
v 0.42024472 -0.09931433 0.24718770
v 0.42024472 -0.09668567 0.24881230
v 0.42024472 -0.09931433 0.24881230
v 0.42500000 -0.09800000 0.24800000
v 0.42373028 -0.09758834 0.25023122
v 0.36373028 -0.04958834 0.20723122
v 0.36500000 -0.05000000 0.20500000
v 0.42480588 -0.09640882 0.25004706
v 0.36480588 -0.04840882 0.20704706
v 0.42595562 -0.09583708 0.24908100
v 0.36595562 -0.04783708 0.20608100
v 0.42674035 -0.09609150 0.24770202
v 0.36674035 -0.04809150 0.20470202
v 0.42686032 -0.09707490 0.24643687
v 0.36686032 -0.04907490 0.20343687
v 0.42626972 -0.09841166 0.24576878
v 0.36626972 -0.05041166 0.20276878
v 0.42519412 -0.09959118 0.24595294
v 0.36519412 -0.05159118 0.20295294
v 0.42404438 -0.10016292 0.24691900
v 0.36404438 -0.05216292 0.20391900
v 0.42325965 -0.09990850 0.24829798
v 0.36325965 -0.05190850 0.20529798
v 0.42313968 -0.09892510 0.24956313
v 0.36313968 -0.05092510 0.20656313
v 0.36500000 -0.05000000 0.20500000
v 0.36414531 -0.04965038 0.20743049
v 0.33214531 -0.01665038 0.19143049
v 0.33300000 -0.01700000 0.18900000
v 0.36534469 -0.04861276 0.20717181
v 0.33334469 -0.01561276 0.19117181
v 0.36641241 -0.04810502 0.20608357
v 0.33441241 -0.01510502 0.19008357
v 0.36694064 -0.04832110 0.20458145
v 0.33494064 -0.01532110 0.18858145
v 0.36672761 -0.04917846 0.20323920
v 0.33472761 -0.01617846 0.18723920
v 0.36585469 -0.05034962 0.20256951
v 0.33385469 -0.01734962 0.18656951
v 0.36465531 -0.05138724 0.20282819
v 0.33265531 -0.01838724 0.18682819
v 0.36358759 -0.05189498 0.20391643
v 0.33158759 -0.01889498 0.18791643
v 0.36305936 -0.05167890 0.20541855
v 0.33105936 -0.01867890 0.18941855
v 0.36327239 -0.05082154 0.20676080
v 0.33127239 -0.01782154 0.19076080
v 0.36500000 -0.05000000 0.20500000
v 0.36457777 -0.04982885 0.20611015
v 0.32557777 -0.00982885 0.18511015
v 0.32600000 -0.01000000 0.18400000
v 0.36527013 -0.04926097 0.20590601
v 0.32627013 -0.00926097 0.18490601
v 0.36580426 -0.04912600 0.20517115
v 0.32680426 -0.00912600 0.18417115
v 0.36586726 -0.04950301 0.20433603
v 0.32686726 -0.00950301 0.18333603
v 0.36542223 -0.05017115 0.20388985
v 0.32642223 -0.01017115 0.18288985
v 0.36472987 -0.05073903 0.20409399
v 0.32572987 -0.01073903 0.18309399
v 0.36419574 -0.05087400 0.20482885
v 0.32519574 -0.01087400 0.18382885
v 0.36413274 -0.05049699 0.20566397
v 0.32513274 -0.01049699 0.18466397
v 0.36500000 -0.05000000 0.20500000
v 0.36443517 -0.04980985 0.20604154
v 0.32843517 -0.01980985 0.18104154
v 0.32900000 -0.02000000 0.18000000
v 0.36507988 -0.04917836 0.20587094
v 0.32907988 -0.01917836 0.18087094
v 0.36567780 -0.04902818 0.20519015
v 0.32967780 -0.01902818 0.18019015
v 0.36587867 -0.04944728 0.20439798
v 0.32987867 -0.01944728 0.17939798
v 0.36556483 -0.05019015 0.20395846
v 0.32956483 -0.02019015 0.17895846
v 0.36492012 -0.05082164 0.20412906
v 0.32892012 -0.02082164 0.17912906
v 0.36432220 -0.05097182 0.20480985
v 0.32832220 -0.02097182 0.17980985
v 0.36412133 -0.05055272 0.20560202
v 0.32812133 -0.02055272 0.18060202
f 1 9 2
f 2 9 10
f 2 10 3
f 3 10 11
f 3 11 4
f 4 11 12
f 4 12 5
f 5 12 13
f 5 13 6
f 6 13 14
f 6 14 7
f 7 14 15
f 7 15 8
f 8 15 16
f 8 16 1
f 1 16 9
f 9 17 10
f 10 17 18
f 10 18 11
f 11 18 19
f 11 19 12
f 12 19 20
f 12 20 13
f 13 20 21
f 13 21 14
f 14 21 22
f 14 22 15
f 15 22 23
f 15 23 16
f 16 23 24
f 16 24 9
f 9 24 17
f 17 25 18
f 18 25 26
f 18 26 19
f 19 26 27
f 19 27 20
f 20 27 28
f 20 28 21
f 21 28 29
f 21 29 22
f 22 29 30
f 22 30 23
f 23 30 31
f 23 31 24
f 24 31 32
f 24 32 17
f 17 32 25
f 25 33 26
f 26 33 34
f 26 34 27
f 27 34 35
f 27 35 28
f 28 35 36
f 28 36 29
f 29 36 37
f 29 37 30
f 30 37 38
f 30 38 31
f 31 38 39
f 31 39 32
f 32 39 40
f 32 40 25
f 25 40 33
f 33 41 34
f 34 41 42
f 34 42 35
f 35 42 43
f 35 43 36
f 36 43 44
f 36 44 37
f 37 44 45
f 37 45 38
f 38 45 46
f 38 46 39
f 39 46 47
f 39 47 40
f 40 47 48
f 40 48 33
f 33 48 41
f 41 49 42
f 42 49 50
f 42 50 43
f 43 50 51
f 43 51 44
f 44 51 52
f 44 52 45
f 45 52 53
f 45 53 46
f 46 53 54
f 46 54 47
f 47 54 55
f 47 55 48
f 48 55 56
f 48 56 41
f 41 56 49
f 49 57 50
f 50 57 58
f 50 58 51
f 51 58 59
f 51 59 52
f 52 59 60
f 52 60 53
f 53 60 61
f 53 61 54
f 54 61 62
f 54 62 55
f 55 62 63
f 55 63 56
f 56 63 64
f 56 64 49
f 49 64 57
f 57 65 58
f 58 65 66
f 58 66 59
f 59 66 67
f 59 67 60
f 60 67 68
f 60 68 61
f 61 68 69
f 61 69 62
f 62 69 70
f 62 70 63
f 63 70 71
f 63 71 64
f 64 71 72
f 64 72 57
f 57 72 65
f 65 73 66
f 66 73 74
f 66 74 67
f 67 74 75
f 67 75 68
f 68 75 76
f 68 76 69
f 69 76 77
f 69 77 70
f 70 77 78
f 70 78 71
f 71 78 79
f 71 79 72
f 72 79 80
f 72 80 65
f 65 80 73
f 73 81 74
f 74 81 82
f 74 82 75
f 75 82 83
f 75 83 76
f 76 83 84
f 76 84 77
f 77 84 85
f 77 85 78
f 78 85 86
f 78 86 79
f 79 86 87
f 79 87 80
f 80 87 88
f 80 88 73
f 73 88 81
f 81 89 82
f 82 89 90
f 82 90 83
f 83 90 91
f 83 91 84
f 84 91 92
f 84 92 85
f 85 92 93
f 85 93 86
f 86 93 94
f 86 94 87
f 87 94 95
f 87 95 88
f 88 95 96
f 88 96 81
f 81 96 89
f 89 97 90
f 90 97 98
f 90 98 91
f 91 98 99
f 91 99 92
f 92 99 100
f 92 100 93
f 93 100 101
f 93 101 94
f 94 101 102
f 94 102 95
f 95 102 103
f 95 103 96
f 96 103 104
f 96 104 89
f 89 104 97
f 97 105 98
f 98 105 106
f 98 106 99
f 99 106 107
f 99 107 100
f 100 107 108
f 100 108 101
f 101 108 109
f 101 109 102
f 102 109 110
f 102 110 103
f 103 110 111
f 103 111 104
f 104 111 112
f 104 112 97
f 97 112 105
f 105 113 106
f 106 113 114
f 106 114 107
f 107 114 115
f 107 115 108
f 108 115 116
f 108 116 109
f 109 116 117
f 109 117 110
f 110 117 118
f 110 118 111
f 111 118 119
f 111 119 112
f 112 119 120
f 112 120 105
f 105 120 113
f 113 121 114
f 114 121 122
f 114 122 115
f 115 122 123
f 115 123 116
f 116 123 124
f 116 124 117
f 117 124 125
f 117 125 118
f 118 125 126
f 118 126 119
f 119 126 127
f 119 127 120
f 120 127 128
f 120 128 113
f 113 128 121
f 121 129 122
f 122 129 130
f 122 130 123
f 123 130 131
f 123 131 124
f 124 131 132
f 124 132 125
f 125 132 133
f 125 133 126
f 126 133 134
f 126 134 127
f 127 134 135
f 127 135 128
f 128 135 136
f 128 136 121
f 121 136 129
f 129 137 130
f 130 137 138
f 130 138 131
f 131 138 139
f 131 139 132
f 132 139 140
f 132 140 133
f 133 140 141
f 133 141 134
f 134 141 142
f 134 142 135
f 135 142 143
f 135 143 136
f 136 143 144
f 136 144 129
f 129 144 137
f 137 145 138
f 138 145 146
f 138 146 139
f 139 146 147
f 139 147 140
f 140 147 148
f 140 148 141
f 141 148 149
f 141 149 142
f 142 149 150
f 142 150 143
f 143 150 151
f 143 151 144
f 144 151 152
f 144 152 137
f 137 152 145
f 145 153 146
f 146 153 154
f 146 154 147
f 147 154 155
f 147 155 148
f 148 155 156
f 148 156 149
f 149 156 157
f 149 157 150
f 150 157 158
f 150 158 151
f 151 158 159
f 151 159 152
f 152 159 160
f 152 160 145
f 145 160 153
f 153 161 154
f 154 161 162
f 154 162 155
f 155 162 163
f 155 163 156
f 156 163 164
f 156 164 157
f 157 164 165
f 157 165 158
f 158 165 166
f 158 166 159
f 159 166 167
f 159 167 160
f 160 167 168
f 160 168 153
f 153 168 161
f 161 169 162
f 162 169 170
f 162 170 163
f 163 170 171
f 163 171 164
f 164 171 172
f 164 172 165
f 165 172 173
f 165 173 166
f 166 173 174
f 166 174 167
f 167 174 175
f 167 175 168
f 168 175 176
f 168 176 161
f 161 176 169
f 169 177 170
f 170 177 178
f 170 178 171
f 171 178 179
f 171 179 172
f 172 179 180
f 172 180 173
f 173 180 181
f 173 181 174
f 174 181 182
f 174 182 175
f 175 182 183
f 175 183 176
f 176 183 184
f 176 184 169
f 169 184 177
f 177 185 178
f 178 185 186
f 178 186 179
f 179 186 187
f 179 187 180
f 180 187 188
f 180 188 181
f 181 188 189
f 181 189 182
f 182 189 190
f 182 190 183
f 183 190 191
f 183 191 184
f 184 191 192
f 184 192 177
f 177 192 185
f 185 1 186
f 186 1 2
f 186 2 187
f 187 2 3
f 187 3 188
f 188 3 4
f 188 4 189
f 189 4 5
f 189 5 190
f 190 5 6
f 190 6 191
f 191 6 7
f 191 7 192
f 192 7 8
f 192 8 185
f 185 8 1
f 193 201 194
f 194 201 202
f 194 202 195
f 195 202 203
f 195 203 196
f 196 203 204
f 196 204 197
f 197 204 205
f 197 205 198
f 198 205 206
f 198 206 199
f 199 206 207
f 199 207 200
f 200 207 208
f 200 208 193
f 193 208 201
f 201 209 202
f 202 209 210
f 202 210 203
f 203 210 211
f 203 211 204
f 204 211 212
f 204 212 205
f 205 212 213
f 205 213 206
f 206 213 214
f 206 214 207
f 207 214 215
f 207 215 208
f 208 215 216
f 208 216 201
f 201 216 209
f 209 217 210
f 210 217 218
f 210 218 211
f 211 218 219
f 211 219 212
f 212 219 220
f 212 220 213
f 213 220 221
f 213 221 214
f 214 221 222
f 214 222 215
f 215 222 223
f 215 223 216
f 216 223 224
f 216 224 209
f 209 224 217
f 217 225 218
f 218 225 226
f 218 226 219
f 219 226 227
f 219 227 220
f 220 227 228
f 220 228 221
f 221 228 229
f 221 229 222
f 222 229 230
f 222 230 223
f 223 230 231
f 223 231 224
f 224 231 232
f 224 232 217
f 217 232 225
f 225 233 226
f 226 233 234
f 226 234 227
f 227 234 235
f 227 235 228
f 228 235 236
f 228 236 229
f 229 236 237
f 229 237 230
f 230 237 238
f 230 238 231
f 231 238 239
f 231 239 232
f 232 239 240
f 232 240 225
f 225 240 233
f 233 241 234
f 234 241 242
f 234 242 235
f 235 242 243
f 235 243 236
f 236 243 244
f 236 244 237
f 237 244 245
f 237 245 238
f 238 245 246
f 238 246 239
f 239 246 247
f 239 247 240
f 240 247 248
f 240 248 233
f 233 248 241
f 241 249 242
f 242 249 250
f 242 250 243
f 243 250 251
f 243 251 244
f 244 251 252
f 244 252 245
f 245 252 253
f 245 253 246
f 246 253 254
f 246 254 247
f 247 254 255
f 247 255 248
f 248 255 256
f 248 256 241
f 241 256 249
f 249 257 250
f 250 257 258
f 250 258 251
f 251 258 259
f 251 259 252
f 252 259 260
f 252 260 253
f 253 260 261
f 253 261 254
f 254 261 262
f 254 262 255
f 255 262 263
f 255 263 256
f 256 263 264
f 256 264 249
f 249 264 257
f 257 265 258
f 258 265 266
f 258 266 259
f 259 266 267
f 259 267 260
f 260 267 268
f 260 268 261
f 261 268 269
f 261 269 262
f 262 269 270
f 262 270 263
f 263 270 271
f 263 271 264
f 264 271 272
f 264 272 257
f 257 272 265
f 265 273 266
f 266 273 274
f 266 274 267
f 267 274 275
f 267 275 268
f 268 275 276
f 268 276 269
f 269 276 277
f 269 277 270
f 270 277 278
f 270 278 271
f 271 278 279
f 271 279 272
f 272 279 280
f 272 280 265
f 265 280 273
f 273 281 274
f 274 281 282
f 274 282 275
f 275 282 283
f 275 283 276
f 276 283 284
f 276 284 277
f 277 284 285
f 277 285 278
f 278 285 286
f 278 286 279
f 279 286 287
f 279 287 280
f 280 287 288
f 280 288 273
f 273 288 281
f 281 289 282
f 282 289 290
f 282 290 283
f 283 290 291
f 283 291 284
f 284 291 292
f 284 292 285
f 285 292 293
f 285 293 286
f 286 293 294
f 286 294 287
f 287 294 295
f 287 295 288
f 288 295 296
f 288 296 281
f 281 296 289
f 289 297 290
f 290 297 298
f 290 298 291
f 291 298 299
f 291 299 292
f 292 299 300
f 292 300 293
f 293 300 301
f 293 301 294
f 294 301 302
f 294 302 295
f 295 302 303
f 295 303 296
f 296 303 304
f 296 304 289
f 289 304 297
f 297 305 298
f 298 305 306
f 298 306 299
f 299 306 307
f 299 307 300
f 300 307 308
f 300 308 301
f 301 308 309
f 301 309 302
f 302 309 310
f 302 310 303
f 303 310 311
f 303 311 304
f 304 311 312
f 304 312 297
f 297 312 305
f 305 313 306
f 306 313 314
f 306 314 307
f 307 314 315
f 307 315 308
f 308 315 316
f 308 316 309
f 309 316 317
f 309 317 310
f 310 317 318
f 310 318 311
f 311 318 319
f 311 319 312
f 312 319 320
f 312 320 305
f 305 320 313
f 313 321 314
f 314 321 322
f 314 322 315
f 315 322 323
f 315 323 316
f 316 323 324
f 316 324 317
f 317 324 325
f 317 325 318
f 318 325 326
f 318 326 319
f 319 326 327
f 319 327 320
f 320 327 328
f 320 328 313
f 313 328 321
f 321 329 322
f 322 329 330
f 322 330 323
f 323 330 331
f 323 331 324
f 324 331 332
f 324 332 325
f 325 332 333
f 325 333 326
f 326 333 334
f 326 334 327
f 327 334 335
f 327 335 328
f 328 335 336
f 328 336 321
f 321 336 329
f 329 337 330
f 330 337 338
f 330 338 331
f 331 338 339
f 331 339 332
f 332 339 340
f 332 340 333
f 333 340 341
f 333 341 334
f 334 341 342
f 334 342 335
f 335 342 343
f 335 343 336
f 336 343 344
f 336 344 329
f 329 344 337
f 337 345 338
f 338 345 346
f 338 346 339
f 339 346 347
f 339 347 340
f 340 347 348
f 340 348 341
f 341 348 349
f 341 349 342
f 342 349 350
f 342 350 343
f 343 350 351
f 343 351 344
f 344 351 352
f 344 352 337
f 337 352 345
f 345 353 346
f 346 353 354
f 346 354 347
f 347 354 355
f 347 355 348
f 348 355 356
f 348 356 349
f 349 356 357
f 349 357 350
f 350 357 358
f 350 358 351
f 351 358 359
f 351 359 352
f 352 359 360
f 352 360 345
f 345 360 353
f 353 361 354
f 354 361 362
f 354 362 355
f 355 362 363
f 355 363 356
f 356 363 364
f 356 364 357
f 357 364 365
f 357 365 358
f 358 365 366
f 358 366 359
f 359 366 367
f 359 367 360
f 360 367 368
f 360 368 353
f 353 368 361
f 361 369 362
f 362 369 370
f 362 370 363
f 363 370 371
f 363 371 364
f 364 371 372
f 364 372 365
f 365 372 373
f 365 373 366
f 366 373 374
f 366 374 367
f 367 374 375
f 367 375 368
f 368 375 376
f 368 376 361
f 361 376 369
f 369 377 370
f 370 377 378
f 370 378 371
f 371 378 379
f 371 379 372
f 372 379 380
f 372 380 373
f 373 380 381
f 373 381 374
f 374 381 382
f 374 382 375
f 375 382 383
f 375 383 376
f 376 383 384
f 376 384 369
f 369 384 377
f 377 193 378
f 378 193 194
f 378 194 379
f 379 194 195
f 379 195 380
f 380 195 196
f 380 196 381
f 381 196 197
f 381 197 382
f 382 197 198
f 382 198 383
f 383 198 199
f 383 199 384
f 384 199 200
f 384 200 377
f 377 200 193
f 386 385 389
f 386 389 387
f 387 389 390
f 387 390 388
f 389 385 391
f 389 391 390
f 390 391 392
f 390 392 388
f 391 385 393
f 391 393 392
f 392 393 394
f 392 394 388
f 393 385 395
f 393 395 394
f 394 395 396
f 394 396 388
f 395 385 397
f 395 397 396
f 396 397 398
f 396 398 388
f 397 385 399
f 397 399 398
f 398 399 400
f 398 400 388
f 399 385 401
f 399 401 400
f 400 401 402
f 400 402 388
f 401 385 403
f 401 403 402
f 402 403 404
f 402 404 388
f 403 385 405
f 403 405 404
f 404 405 406
f 404 406 388
f 405 385 386
f 405 386 406
f 406 386 387
f 406 387 388
f 408 407 411
f 408 411 409
f 409 411 412
f 409 412 410
f 411 407 413
f 411 413 412
f 412 413 414
f 412 414 410
f 413 407 415
f 413 415 414
f 414 415 416
f 414 416 410
f 415 407 417
f 415 417 416
f 416 417 418
f 416 418 410
f 417 407 419
f 417 419 418
f 418 419 420
f 418 420 410
f 419 407 421
f 419 421 420
f 420 421 422
f 420 422 410
f 421 407 423
f 421 423 422
f 422 423 424
f 422 424 410
f 423 407 425
f 423 425 424
f 424 425 426
f 424 426 410
f 425 407 427
f 425 427 426
f 426 427 428
f 426 428 410
f 427 407 408
f 427 408 428
f 428 408 409
f 428 409 410
f 429 566 482
f 566 466 568
f 482 568 445
f 566 568 482
f 466 567 583
f 567 440 580
f 583 580 469
f 567 580 583
f 445 581 483
f 581 469 579
f 483 579 434
f 581 579 483
f 466 583 568
f 583 469 581
f 568 581 445
f 583 581 568
f 429 482 471
f 482 445 484
f 471 484 441
f 482 484 471
f 445 483 488
f 483 434 486
f 488 486 446
f 483 486 488
f 441 487 472
f 487 446 485
f 472 485 430
f 487 485 472
f 445 488 484
f 488 446 487
f 484 487 441
f 488 487 484
f 429 471 498
f 471 441 500
f 498 500 450
f 471 500 498
f 441 472 503
f 472 430 501
f 503 501 451
f 472 501 503
f 450 504 499
f 504 451 502
f 499 502 436
f 504 502 499
f 441 503 500
f 503 451 504
f 500 504 450
f 503 504 500
f 429 498 549
f 498 450 551
f 549 551 462
f 498 551 549
f 450 499 562
f 499 436 560
f 562 560 465
f 499 560 562
f 462 564 550
f 564 465 561
f 550 561 439
f 564 561 550
f 450 562 551
f 562 465 564
f 551 564 462
f 562 564 551
f 429 549 566
f 549 462 569
f 566 569 466
f 549 569 566
f 462 550 587
f 550 439 585
f 587 585 470
f 550 585 587
f 466 589 567
f 589 470 586
f 567 586 440
f 589 586 567
f 462 587 569
f 587 470 589
f 569 589 466
f 587 589 569
f 430 485 524
f 485 446 526
f 524 526 457
f 485 526 524
f 446 486 539
f 486 434 537
f 539 537 460
f 486 537 539
f 457 541 525
f 541 460 538
f 525 538 438
f 541 538 525
f 446 539 526
f 539 460 541
f 526 541 457
f 539 541 526
f 434 579 490
f 579 469 582
f 490 582 447
f 579 582 490
f 469 580 584
f 580 440 575
f 584 575 468
f 580 575 584
f 447 577 489
f 577 468 574
f 489 574 433
f 577 574 489
f 469 584 582
f 584 468 577
f 582 577 447
f 584 577 582
f 440 586 571
f 586 470 590
f 571 590 467
f 586 590 571
f 470 585 588
f 585 439 553
f 588 553 463
f 585 553 588
f 467 573 570
f 573 463 552
f 570 552 431
f 573 552 570
f 470 588 590
f 588 463 573
f 590 573 467
f 588 573 590
f 439 561 556
f 561 465 565
f 556 565 464
f 561 565 556
f 465 560 563
f 560 436 506
f 563 506 452
f 560 506 563
f 464 558 555
f 558 452 505
f 555 505 435
f 558 505 555
f 465 563 565
f 563 452 558
f 565 558 464
f 563 558 565
f 436 502 518
f 502 451 520
f 518 520 456
f 502 520 518
f 451 501 509
f 501 430 507
f 509 507 453
f 501 507 509
f 456 522 519
f 522 453 508
f 519 508 437
f 522 508 519
f 451 509 520
f 509 453 522
f 520 522 456
f 509 522 520
f 432 528 478
f 528 458 530
f 478 530 444
f 528 530 478
f 458 529 536
f 529 438 533
f 536 533 459
f 529 533 536
f 444 534 479
f 534 459 532
f 479 532 433
f 534 532 479
f 458 536 530
f 536 459 534
f 530 534 444
f 536 534 530
f 432 478 474
f 478 444 480
f 474 480 442
f 478 480 474
f 444 479 481
f 479 433 476
f 481 476 443
f 479 476 481
f 442 477 473
f 477 443 475
f 473 475 431
f 477 475 473
f 444 481 480
f 481 443 477
f 480 477 442
f 481 477 480
f 432 474 494
f 474 442 496
f 494 496 449
f 474 496 494
f 442 473 493
f 473 431 491
f 493 491 448
f 473 491 493
f 449 497 495
f 497 448 492
f 495 492 435
f 497 492 495
f 442 493 496
f 493 448 497
f 496 497 449
f 493 497 496
f 432 494 510
f 494 449 512
f 510 512 454
f 494 512 510
f 449 495 515
f 495 435 513
f 515 513 455
f 495 513 515
f 454 517 511
f 517 455 514
f 511 514 437
f 517 514 511
f 449 515 512
f 515 455 517
f 512 517 454
f 515 517 512
f 432 510 528
f 510 454 531
f 528 531 458
f 510 531 528
f 454 511 546
f 511 437 543
f 546 543 461
f 511 543 546
f 458 548 529
f 548 461 544
f 529 544 438
f 548 544 529
f 454 546 531
f 546 461 548
f 531 548 458
f 546 548 531
f 433 532 489
f 532 459 535
f 489 535 447
f 532 535 489
f 459 533 542
f 533 438 538
f 542 538 460
f 533 538 542
f 447 540 490
f 540 460 537
f 490 537 434
f 540 537 490
f 459 542 535
f 542 460 540
f 535 540 447
f 542 540 535
f 431 475 570
f 475 443 572
f 570 572 467
f 475 572 570
f 443 476 576
f 476 433 574
f 576 574 468
f 476 574 576
f 467 578 571
f 578 468 575
f 571 575 440
f 578 575 571
f 443 576 572
f 576 468 578
f 572 578 467
f 576 578 572
f 435 492 555
f 492 448 557
f 555 557 464
f 492 557 555
f 448 491 554
f 491 431 552
f 554 552 463
f 491 552 554
f 464 559 556
f 559 463 553
f 556 553 439
f 559 553 556
f 448 554 557
f 554 463 559
f 557 559 464
f 554 559 557
f 437 514 519
f 514 455 523
f 519 523 456
f 514 523 519
f 455 513 516
f 513 435 505
f 516 505 452
f 513 505 516
f 456 521 518
f 521 452 506
f 518 506 436
f 521 506 518
f 455 516 523
f 516 452 521
f 523 521 456
f 516 521 523
f 438 544 525
f 544 461 547
f 525 547 457
f 544 547 525
f 461 543 545
f 543 437 508
f 545 508 453
f 543 508 545
f 457 527 524
f 527 453 507
f 524 507 430
f 527 507 524
f 461 545 547
f 545 453 527
f 547 527 457
f 545 527 547
f 592 591 595
f 592 595 593
f 593 595 596
f 593 596 594
f 595 591 597
f 595 597 596
f 596 597 598
f 596 598 594
f 597 591 599
f 597 599 598
f 598 599 600
f 598 600 594
f 599 591 601
f 599 601 600
f 600 601 602
f 600 602 594
f 601 591 603
f 601 603 602
f 602 603 604
f 602 604 594
f 603 591 605
f 603 605 604
f 604 605 606
f 604 606 594
f 605 591 607
f 605 607 606
f 606 607 608
f 606 608 594
f 607 591 609
f 607 609 608
f 608 609 610
f 608 610 594
f 609 591 611
f 609 611 610
f 610 611 612
f 610 612 594
f 611 591 592
f 611 592 612
f 612 592 593
f 612 593 594
f 614 613 617
f 614 617 615
f 615 617 618
f 615 618 616
f 617 613 619
f 617 619 618
f 618 619 620
f 618 620 616
f 619 613 621
f 619 621 620
f 620 621 622
f 620 622 616
f 621 613 623
f 621 623 622
f 622 623 624
f 622 624 616
f 623 613 625
f 623 625 624
f 624 625 626
f 624 626 616
f 625 613 627
f 625 627 626
f 626 627 628
f 626 628 616
f 627 613 629
f 627 629 628
f 628 629 630
f 628 630 616
f 629 613 631
f 629 631 630
f 630 631 632
f 630 632 616
f 631 613 633
f 631 633 632
f 632 633 634
f 632 634 616
f 633 613 614
f 633 614 634
f 634 614 615
f 634 615 616
f 636 635 639
f 636 639 637
f 637 639 640
f 637 640 638
f 639 635 641
f 639 641 640
f 640 641 642
f 640 642 638
f 641 635 643
f 641 643 642
f 642 643 644
f 642 644 638
f 643 635 645
f 643 645 644
f 644 645 646
f 644 646 638
f 645 635 647
f 645 647 646
f 646 647 648
f 646 648 638
f 647 635 649
f 647 649 648
f 648 649 650
f 648 650 638
f 649 635 651
f 649 651 650
f 650 651 652
f 650 652 638
f 651 635 636
f 651 636 652
f 652 636 637
f 652 637 638
f 654 653 657
f 654 657 655
f 655 657 658
f 655 658 656
f 657 653 659
f 657 659 658
f 658 659 660
f 658 660 656
f 659 653 661
f 659 661 660
f 660 661 662
f 660 662 656
f 661 653 663
f 661 663 662
f 662 663 664
f 662 664 656
f 663 653 665
f 663 665 664
f 664 665 666
f 664 666 656
f 665 653 667
f 665 667 666
f 666 667 668
f 666 668 656
f 667 653 669
f 667 669 668
f 668 669 670
f 668 670 656
f 669 653 654
f 669 654 670
f 670 654 655
f 670 655 656

