<COLLADA xmlns="http://www.collada.org/2005/11/COLLADASchema" version="1.4.1">
  <asset>
    <created>2026-06-26T22:42:03.630183</created>
    <modified>2026-06-26T22:42:03.630183</modified>
    <up_axis>Y_UP</up_axis>
  </asset>
  <library_effects>
    <effect id="11ceca62b1144473a906873f88d0592c" name="11ceca62b1144473a906873f88d0592c">
      <profile_COMMON>
        <technique sid="common">
          <phong>
            <emission>
              <color>0.0 0.0 0.0 1.0</color>
            </emission>
            <ambient>
              <color>0.0 0.0 0.0 1.0</color>
            </ambient>
            <diffuse>
              <color>0.792156862745098 0.8196078431372549 0.9333333333333333 1.0</color>
            </diffuse>
            <specular>
              <color>0.0 0.0 0.0 1.0</color>
            </specular>
            <shininess>
              <float>0.0</float>
            </shininess>
            <reflective>
              <color>0.0 0.0 0.0 1.0</color>
            </reflective>
            <reflectivity>
              <float>0.0</float>
            </reflectivity>
            <transparent>
              <color>0.0 0.0 0.0 1.0</color>
            </transparent>
            <transparency>
              <float>1.0</float>
            </transparency>
          </phong>
        </technique>
        <extra>
          <technique profile="GOOGLEEARTH">
            <double_sided>0</double_sided>
          </technique>
        </extra>
      </profile_COMMON>
    </effect>
  </library_effects>
  <library_geometries>
    <geometry id="32e458cd1a7241d59de61f1a2d34abc0" name="a017a05f570142d08335cbd795c92635">
      <mesh>
        <source id="verts-array">
          <float_array count="1128" id="verts-array-array">-0.07030474 0.02642429 0.01 -0.001604709 -0.003664002 0.01 -0.07030474 0.02642429 0.013 -0.001604709 -0.003664002 0.013 -0.07091661 0.02675861 0.013 -0.07091661 0.02675861 0.01 -0.07146113 0.0271941 0.013 -0.07146113 0.0271941 0.01 -0.07192175 0.02771753 0.013 -0.07192175 0.02771753 0.01 -0.07228449 0.02831299 0.013 -0.07228449 0.02831299 0.01 -0.07253831 0.0289624 0.013 -0.07253831 0.0289624 0.01 -0.0726755 0.02964601 0.013 -0.0726755 0.02964601 0.01 -0.07269191 0.03034307 0.013 -0.07269191 0.03034307 0.01 -0.07258702 0.03103238 0.013 -0.07258702 0.03103238 0.01 -0.07236403 0.031693 0.013 -0.07236403 0.031693 0.01 -0.07202972 0.03230487 0.013 -0.07202972 0.03230487 0.01 -0.07159422 0.03284939 0.013 -0.07159422 0.03284939 0.01 -0.0710708 0.03331001 0.013 -0.0710708 0.03331001 0.01 -0.07047534 0.03367275 0.013 -0.07047534 0.03367275 0.01 -0.06982593 0.03392657 0.013 -0.06982593 0.03392657 0.01 -0.06914232 0.03406377 0.013 -0.06914232 0.03406377 0.01 -0.06844526 0.03408017 0.013 -0.06844526 0.03408017 0.01 -0.06775595 0.03397529 0.013 -0.06775595 0.03397529 0.01 -0.06709532 0.0337523 0.013 -0.06709532 0.0337523 0.01 0.001604709 0.003664001 0.01 0.001604709 0.003664001 0.013 0.002216583 0.003329678 0.013 0.002216583 0.003329678 0.01 0.002761113 0.002894184 0.013 0.002761113 0.002894184 0.01 0.003221719 0.002370762 0.013 0.003221719 0.002370762 0.01 0.0035845 0.001775283 0.013 0.0035845 0.001775283 0.01 0.003838295 0.001125887 0.013 0.003838295 0.001125887 0.01 0.003975472 0.0004422821 0.013 0.003975472 0.0004422821 0.01 0.003991905 -0.0002547829 0.013 0.003991905 -0.0002547829 0.01 0.003886963 -0.0009440733 0.013 0.003886963 -0.0009440733 0.01 0.003664002 -0.00160471 0.013 0.003664002 -0.00160471 0.01 0.003329655 -0.002216563 0.013 0.003329655 -0.002216563 0.01 0.00289422 -0.002761108 0.013 0.00289422 -0.002761108 0.01 0.002370762 -0.00322172 0.013 0.002370762 -0.00322172 0.01 0.001775321 -0.003584462 0.013 0.001775321 -0.003584462 0.01 0.001125941 -0.003838298 0.013 0.001125941 -0.003838298 0.01 0.0004422826 -0.003975472 0.013 0.0004422826 -0.003975472 0.01 -0.000254753 -0.003991886 0.013 -0.000254753 -0.003991886 0.01 -0.0009440757 -0.003886995 0.013 -0.0009440757 -0.003886995 0.01 -0.07132333 0.02999383 0.01 -0.07269191 0.03034307 0.01 -0.07127859 0.03057993 0.01 -0.07258702 0.03103238 0.01 -0.07110453 0.03114139 0.01 -0.07236403 0.031693 0.01 -0.07080992 0.03165004 0.01 -9.443146e-05 0.002623281 0.01 -0.0006758788 0.002536521 0.01 -0.06802419 0.02755179 0.01 -0.001223317 0.002322518 0.01 -0.001709422 0.001992058 0.01 -0.002109893 0.001561746 0.01 0.001604709 0.003664001 0.01 -0.06612148 0.02959666 0.01 -0.06607674 0.03018277 0.01 -0.07202972 0.03230487 0.01 -0.07159422 0.03284939 0.01 -0.07040949 0.03208037 0.01 -0.0710708 0.03331001 0.01 -0.06992336 0.03241082 0.01 -0.07047534 0.03367275 0.01 -0.06937587 0.0326248 0.01 -0.06982593 0.03392657 0.01 -0.0687945 0.03271159 0.01 -0.06747671 0.02776577 0.01 0.00105309 0.002404501 0.01 0.0004916513 0.002578543 0.01 -0.06616352 0.03076414 0.01 -0.06637751 0.03131162 0.01 -0.06709532 0.0337523 0.01 -0.06670796 0.03179776 0.01 -0.06713829 0.03219818 0.01 -0.06764694 0.0324928 0.01 -0.06775595 0.03397529 0.01 -0.0682084 0.03266685 0.01 -0.06844526 0.03408017 0.01 -0.06914232 0.03406377 0.01 -0.07026177 0.02797841 0.01 -0.07146113 0.0271941 0.01 -0.0706921 0.02837883 0.01 -0.07192175 0.02771753 0.01 -0.07102255 0.02886497 0.01 -0.07228449 0.02831299 0.01 -0.07123654 0.02941245 0.01 -0.07253831 0.0289624 0.01 -0.0726755 0.02964601 0.01 -0.06699057 0.02809623 0.01 -0.06659015 0.02852655 0.01 -0.06629553 0.0290352 0.01 -0.06975312 0.02768379 0.01 -0.07030474 0.02642429 0.01 -0.07091661 0.02675861 0.01 -0.002623258 -9.448583e-05 0.01 -0.002578564 0.0004916382 0.01 -0.002404501 0.00105309 0.01 -0.06919167 0.02750974 0.01 -0.06860556 0.027465 0.01 0.00262326 9.44893e-05 0.01 0.003991905 -0.0002547829 0.01 0.002578564 -0.0004916393 0.01 0.003886963 -0.0009440733 0.01 0.002404501 -0.001053091 0.01 0.003664002 -0.00160471 0.01 0.002109893 -0.001561748 0.01 0.001561723 0.002109887 0.01 0.002761113 0.002894184 0.01 0.001992034 0.001709479 0.01 0.003221719 0.002370762 0.01 0.002322557 0.001223307 0.01 0.0035845 0.001775283 0.01 0.002536499 0.0006758455 0.01 0.003838295 0.001125887 0.01 0.003975472 0.0004422821 0.01 0.002216583 0.003329678 0.01 -0.002536499 -0.0006758457 0.01 -0.002322558 -0.001223311 0.01 -0.001604709 -0.003664002 0.01 -0.001992033 -0.001709477 0.01 0.003329655 -0.002216563 0.01 0.00289422 -0.002761108 0.01 0.001709424 -0.001992054 0.01 0.002370762 -0.00322172 0.01 0.001223317 -0.002322518 0.01 0.001775321 -0.003584462 0.01 0.0006758777 -0.002536524 0.01 0.001125941 -0.003838298 0.01 9.443251e-05 -0.002623279 0.01 -0.001561725 -0.002109892 0.01 -0.00105309 -0.002404502 0.01 -0.0009440757 -0.003886995 0.01 -0.0004916531 -0.002578547 0.01 -0.000254753 -0.003991886 0.01 0.0004422826 -0.003975472 0.01 -0.06607674 0.03018277 0.013 -0.06612148 0.02959666 0.013 0.001604709 0.003664001 0.013 -0.0682084 0.03266685 0.013 -0.06764694 0.0324928 0.013 -0.06709532 0.0337523 0.013 -0.06616352 0.03076414 0.013 -0.001604709 -0.003664002 0.013 -0.06659015 0.02852655 0.013 -0.06699057 0.02809623 0.013 -0.07127859 0.03057993 0.013 -0.07269191 0.03034307 0.013 -0.07132333 0.02999383 0.013 -0.0726755 0.02964601 0.013 -0.07123654 0.02941245 0.013 -0.07253831 0.0289624 0.013 -0.07102255 0.02886497 0.013 -0.07228449 0.02831299 0.013 -0.0706921 0.02837883 0.013 -0.07040949 0.03208037 0.013 -0.07159422 0.03284939 0.013 -0.07080992 0.03165004 0.013 -0.07202972 0.03230487 0.013 -0.07110453 0.03114139 0.013 -0.07236403 0.031693 0.013 -0.07258702 0.03103238 0.013 -0.06775595 0.03397529 0.013 -0.06844526 0.03408017 0.013 -0.0687945 0.03271159 0.013 -0.06914232 0.03406377 0.013 -0.06937587 0.0326248 0.013 -0.06982593 0.03392657 0.013 -0.06992336 0.03241082 0.013 -0.07047534 0.03367275 0.013 -0.0710708 0.03331001 0.013 -0.002536499 -0.0006758457 0.013 -0.002623258 -9.448583e-05 0.013 -0.002578564 0.0004916382 0.013 -0.06629553 0.0290352 0.013 -0.06747671 0.02776577 0.013 -0.06802419 0.02755179 0.013 -0.07030474 0.02642429 0.013 -0.06860556 0.027465 0.013 -0.06919167 0.02750974 0.013 -0.06975312 0.02768379 0.013 -0.07091661 0.02675861 0.013 -0.07026177 0.02797841 0.013 -0.07146113 0.0271941 0.013 -0.07192175 0.02771753 0.013 -0.06713829 0.03219818 0.013 -0.06670796 0.03179776 0.013 -0.06637751 0.03131162 0.013 -0.002404501 0.00105309 0.013 -0.002109893 0.001561746 0.013 -0.001709422 0.001992058 0.013 -0.001223317 0.002322518 0.013 -0.0006758788 0.002536521 0.013 -9.443146e-05 0.002623281 0.013 0.001709424 -0.001992054 0.013 0.00289422 -0.002761108 0.013 0.002109893 -0.001561748 0.013 0.003329655 -0.002216563 0.013 0.002404501 -0.001053091 0.013 0.003664002 -0.00160471 0.013 0.002578564 -0.0004916393 0.013 -0.0004916531 -0.002578547 0.013 -0.00105309 -0.002404502 0.013 0.003886963 -0.0009440733 0.013 0.003991905 -0.0002547829 0.013 0.00262326 9.44893e-05 0.013 0.003975472 0.0004422821 0.013 0.002536499 0.0006758455 0.013 0.003838295 0.001125887 0.013 0.002322557 0.001223307 0.013 0.0035845 0.001775283 0.013 0.001992034 0.001709479 0.013 -0.001561725 -0.002109892 0.013 -0.001992033 -0.001709477 0.013 -0.002322558 -0.001223311 0.013 0.0004916513 0.002578543 0.013 0.00105309 0.002404501 0.013 0.002216583 0.003329678 0.013 0.001561723 0.002109887 0.013 0.002761113 0.002894184 0.013 0.003221719 0.002370762 0.013 -0.0009440757 -0.003886995 0.013 -0.000254753 -0.003991886 0.013 9.443251e-05 -0.002623279 0.013 0.0004422826 -0.003975472 0.013 0.0006758777 -0.002536524 0.013 0.001125941 -0.003838298 0.013 0.001223317 -0.002322518 0.013 0.001775321 -0.003584462 0.013 0.002370762 -0.00322172 0.013 0.002404501 -0.001053091 0.01 0.002404501 -0.001053091 0.013 0.002578564 -0.0004916393 0.01 0.002578564 -0.0004916393 0.013 0.00262326 9.44893e-05 0.01 0.00262326 9.44893e-05 0.013 0.002536499 0.0006758455 0.01 0.002536499 0.0006758455 0.013 0.002322557 0.001223307 0.01 0.002322557 0.001223307 0.013 0.001992034 0.001709479 0.01 0.001992034 0.001709479 0.013 0.001561723 0.002109887 0.01 0.001561723 0.002109887 0.013 0.00105309 0.002404501 0.01 0.00105309 0.002404501 0.013 0.0004916513 0.002578543 0.01 0.0004916513 0.002578543 0.013 -9.443146e-05 0.002623281 0.01 -9.443146e-05 0.002623281 0.013 -0.0006758788 0.002536521 0.01 -0.0006758788 0.002536521 0.013 -0.001223317 0.002322518 0.01 -0.001223317 0.002322518 0.013 -0.001709422 0.001992058 0.01 -0.001709422 0.001992058 0.013 -0.002109893 0.001561746 0.01 -0.002109893 0.001561746 0.013 -0.002404501 0.00105309 0.01 -0.002404501 0.00105309 0.013 -0.002578564 0.0004916382 0.01 -0.002578564 0.0004916382 0.013 -0.002623258 -9.448583e-05 0.01 -0.002623258 -9.448583e-05 0.013 -0.002536499 -0.0006758457 0.01 -0.002536499 -0.0006758457 0.013 -0.002322558 -0.001223311 0.01 -0.002322558 -0.001223311 0.013 -0.001992033 -0.001709477 0.01 -0.001992033 -0.001709477 0.013 -0.001561725 -0.002109892 0.01 -0.001561725 -0.002109892 0.013 -0.00105309 -0.002404502 0.01 -0.00105309 -0.002404502 0.013 -0.0004916531 -0.002578547 0.01 -0.0004916531 -0.002578547 0.013 9.443251e-05 -0.002623279 0.01 9.443251e-05 -0.002623279 0.013 0.0006758777 -0.002536524 0.01 0.0006758777 -0.002536524 0.013 0.001223317 -0.002322518 0.01 0.001223317 -0.002322518 0.013 0.001709424 -0.001992054 0.01 0.001709424 -0.001992054 0.013 0.002109893 -0.001561748 0.01 0.002109893 -0.001561748 0.013 -0.06629553 0.0290352 0.01 -0.06629553 0.0290352 0.013 -0.06612148 0.02959666 0.01 -0.06612148 0.02959666 0.013 -0.06607674 0.03018277 0.01 -0.06607674 0.03018277 0.013 -0.06616352 0.03076414 0.01 -0.06616352 0.03076414 0.013 -0.06637751 0.03131162 0.01 -0.06637751 0.03131162 0.013 -0.06670796 0.03179776 0.01 -0.06670796 0.03179776 0.013 -0.06713829 0.03219818 0.01 -0.06713829 0.03219818 0.013 -0.06764694 0.0324928 0.01 -0.06764694 0.0324928 0.013 -0.0682084 0.03266685 0.01 -0.0682084 0.03266685 0.013 -0.0687945 0.03271159 0.01 -0.0687945 0.03271159 0.013 -0.06937587 0.0326248 0.01 -0.06937587 0.0326248 0.013 -0.06992336 0.03241082 0.01 -0.06992336 0.03241082 0.013 -0.07040949 0.03208037 0.01 -0.07040949 0.03208037 0.013 -0.07080992 0.03165004 0.01 -0.07080992 0.03165004 0.013 -0.07110453 0.03114139 0.01 -0.07110453 0.03114139 0.013 -0.07127859 0.03057993 0.01 -0.07127859 0.03057993 0.013 -0.07132333 0.02999383 0.01 -0.07132333 0.02999383 0.013 -0.07123654 0.02941245 0.01 -0.07123654 0.02941245 0.013 -0.07102255 0.02886497 0.01 -0.07102255 0.02886497 0.013 -0.0706921 0.02837883 0.01 -0.0706921 0.02837883 0.013 -0.07026177 0.02797841 0.01 -0.07026177 0.02797841 0.013 -0.06975312 0.02768379 0.01 -0.06975312 0.02768379 0.013 -0.06919167 0.02750974 0.01 -0.06919167 0.02750974 0.013 -0.06860556 0.027465 0.01 -0.06860556 0.027465 0.013 -0.06802419 0.02755179 0.01 -0.06802419 0.02755179 0.013 -0.06747671 0.02776577 0.01 -0.06747671 0.02776577 0.013 -0.06699057 0.02809623 0.01 -0.06699057 0.02809623 0.013 -0.06659015 0.02852655 0.01 -0.06659015 0.02852655 0.013</float_array>
          <technique_common>
            <accessor count="376" source="#verts-array-array" stride="3">
              <param type="float" name="X"/>
              <param type="float" name="Y"/>
              <param type="float" name="Z"/>
            </accessor>
          </technique_common>
        </source>
        <source id="normals-array">
          <float_array count="1128" id="normals-array-array">-0.4407515 -0.8976292 0 -0.3608398 -0.9326278 0 -0.4407515 -0.8976292 0 -0.3608398 -0.9326278 0 -0.5541447 -0.8324203 0 -0.5541447 -0.8324203 0 -0.6902742 -0.7235479 0 -0.6902742 -0.7235479 0 -0.805429 -0.5926922 0 -0.805429 -0.5926922 2.580734e-16 -0.8961124 -0.4438271 2.552047e-16 -0.8961124 -0.4438271 5.132782e-16 -0.9595694 -0.2814721 3.255175e-16 -0.9595694 -0.2814721 2.279083e-16 -0.9938685 -0.110569 9.760918e-17 -0.9938685 -0.110569 0 -0.9979695 0.06369293 0 -0.9979695 0.06369293 -7.462329e-17 -0.9717481 0.2360206 -1.983303e-16 -0.9717481 0.2360206 -4.316022e-16 -0.9160004 0.4011773 -7.692602e-16 -0.9160004 0.4011773 -4.521955e-16 -0.8324207 0.5541443 -4.757132e-16 -0.8324207 0.5541443 0 -0.7235482 0.6902739 0 -0.7235482 0.6902739 0 -0.592692 0.8054292 0 -0.592692 0.8054292 0 -0.4438271 0.8961124 0 -0.4438271 0.8961124 0 -0.2814721 0.9595694 0 -0.2814721 0.9595694 0 -0.110569 0.9938685 0 -0.110569 0.9938685 0 0.06369237 0.9979696 0 0.06369237 0.9979696 0 0.2360202 0.9717481 0 0.2360202 0.9717481 -9.400225e-16 0.3608394 0.932628 -2.088757e-15 0.3608394 0.932628 -2.976992e-15 0.4407511 0.8976294 0 0.4407511 0.8976294 -4.910322e-17 0.5541423 0.8324219 0 0.5541423 0.8324219 0 0.6902768 0.7235454 0 0.6902768 0.7235454 0 0.8054204 0.5927039 0 0.8054204 0.5927039 0 0.8961101 0.4438319 0 0.8961101 0.4438319 0 0.959577 0.2814462 0 0.959577 0.2814462 0 0.9938676 0.110577 0 0.9938676 0.110577 0 0.9979681 -0.06371483 0 0.9979681 -0.06371483 0 0.9717433 -0.2360403 0 0.9717433 -0.2360403 0 0.9160004 -0.4011773 0 0.9160004 -0.4011773 0 0.8324317 -0.5541276 0 0.8324317 -0.5541276 0 0.7235635 -0.6902578 0 0.7235635 -0.6902578 0 0.592686 -0.8054336 0 0.592686 -0.8054336 0 0.4438513 -0.8961005 0 0.4438513 -0.8961005 0 0.281467 -0.9595709 0 0.281467 -0.9595709 0 0.1105546 -0.9938701 0 0.1105546 -0.9938701 0 -0.06368873 -0.9979698 0 -0.06368873 -0.9979698 0 -0.236023 -0.9717475 0 -0.236023 -0.9717475 0 0 0 -1 0 0 -1 0 0 -1 0 0 -1 0 0 -1 0 0 -1 0 0 -1 -2.30742e-17 -4.108165e-16 -1 4.321219e-17 -2.303933e-16 -1 4.247753e-17 -2.255063e-16 -1 7.100141e-17 -1.557976e-16 -1 8.799035e-17 -1.110559e-16 -1 1.000385e-16 -7.806576e-17 -1 6.826741e-17 -2.814749e-17 -1 1.440729e-16 -2.5475e-17 -1 1.580335e-16 1.084507e-17 -1 0 0 -1 0 0 -1 0 0 -1 0 0 -1 0 0 -1 0 0 -1 0 0 -1 0 0 -1 0 0 -1 6.979963e-17 -1.533938e-16 -1 5.072969e-17 -6.849528e-17 -1 -6.643539e-16 -2.170018e-15 -1 1.762499e-16 5.667145e-17 -1 1.598011e-16 5.124664e-17 -1 4.964664e-17 1.460124e-17 -1 0 0 -1 0 0 -1 0 0 -1 0 0 -1 0 0 -1 0 0 -1 0 0 -1 -7.391614e-16 -1.01007e-15 -1 7.369782e-17 -1.532036e-15 -1 -1.722848e-16 -7.141459e-16 -1 5.474137e-16 -1.017882e-15 -1 0 0 -1 0 0 -1 0 0 -1 0 0 -1 0 0 -1 -3.093687e-16 -1.156956e-15 -1 -5.455501e-16 -1.811156e-15 -1 1.315784e-16 -5.808021e-17 -1 -1.7023e-16 -3.572436e-16 -1 -4.671391e-16 -1.153022e-15 -1 -6.920571e-16 -1.050617e-15 -1 -2.679906e-16 -1.076458e-15 -1 -4.809063e-16 -1.620334e-15 -1 1.238207e-16 -4.5781e-17 -1 1.251152e-14 3.125552e-14 -1 -2.130349e-17 -3.895344e-16 -1 0 0 -1 0 0 -1 0 0 -1 0 0 -1 0 0 -1 0 0 -1 0 0 -1 0 0 -1 0 0 -1 6.124592e-16 -1.138895e-15 -1 6.063717e-16 -1.302909e-15 -1 6.742787e-16 -1.316827e-15 -1 4.869347e-16 -1.113245e-15 -1 0 0 -1 0 0 -1 0 0 -1 0 0 -1 1.762442e-16 5.665711e-17 -1 1.597976e-16 5.124397e-17 -1 4.964625e-17 1.460181e-17 -1 0 0 -1 0 0 -1 0 0 -1 0 0 -1 0 0 -1 0 0 -1 0 0 -1 0 0 -1 0 0 -1 0 0 -1 0 0 -1 0 0 -1 0 0 -1 0 0 -1 0 0 -1 0 0 -1 -1.580335e-16 -1.084507e-17 1 -1.458513e-16 2.78018e-17 1 -2.311228e-17 5.370138e-17 1 -9.422205e-16 1.029873e-15 1 5.061321e-16 1.155642e-15 1 4.189148e-16 1.092089e-15 1 -1.762499e-16 -5.667145e-17 1 -5.454261e-17 -8.214578e-18 1 -1.193333e-16 8.834027e-17 1 -9.919414e-17 1.235018e-16 1 -2.743886e-16 4.447538e-16 1 0 0 1 0 0 1 0 0 1 0 0 1 0 0 1 0 0 1 0 0 1 0 0 1 2.380987e-16 1.000846e-15 1 -9.168584e-16 8.740248e-16 1 -1.003629e-15 7.404161e-16 1 -1.053239e-15 6.983644e-16 1 -1.152577e-15 4.990886e-16 1 -4.120965e-16 1.222888e-15 1 4.324953e-16 1.250728e-15 1 3.028641e-16 1.221066e-15 1 -3.259669e-16 6.360637e-16 1 -1.20505e-15 3.075089e-16 1 0 0 1 0 0 1 0 0 1 1.434512e-15 6.274653e-16 1 1.115922e-16 5.318575e-16 1 -7.357107e-16 1.015086e-15 1 -1.908144e-16 -6.211889e-17 1 -1.681598e-16 -1.217002e-17 1 -1.512829e-16 2.614407e-17 1 -1.364327e-16 5.97529e-17 1 -7.786681e-17 1.679649e-16 1 -7.069911e-17 1.521975e-16 1 -2.293475e-17 4.638946e-17 1 0 0 1 0 0 1 0 0 1 0 0 1 0 0 1 0 0 1 0 0 1 8.925844e-16 1.09153e-15 1 3.00324e-16 7.756459e-16 1 -2.04469e-16 -1.263008e-16 1 -1.366888e-16 5.986509e-17 1 -1.218018e-16 9.345751e-17 1 -1.050869e-16 1.318432e-16 1 -8.373869e-17 1.823652e-16 1 -7.648689e-17 1.641124e-16 1 0 0 1 7.750141e-17 4.780703e-16 1 0 0 1 0 0 1 0 0 1 0 0 1 0 0 1 0 0 1 -3.169522e-16 6.132653e-16 1 0 0 1 0 0 1 0 0 1 0 0 1 0 0 1 0 0 1 0 0 1 0 0 1 0 0 1 0 0 1 0 0 1 -1.539329e-16 -4.863062e-17 1 -2.275571e-16 -1.41722e-16 1 0 0 1 0 0 1 0 0 1 0 0 1 0 0 1 0 0 1 -1.119136e-15 3.869642e-16 1 -1.010045e-15 1.081186e-15 1 -4.543557e-17 1.244639e-15 1 -1.413489e-16 1.257793e-15 1 -3.253515e-16 1.207589e-15 1 -3.578056e-16 1.208874e-15 1 -5.952357e-16 1.11428e-15 1 4.607967e-16 1.161869e-15 1 1.201427e-15 6.461511e-16 1 -0.9160004 0.4011773 0 -0.9160004 0.4011773 0 -0.9823112 0.1872557 0 -0.9823112 0.1872557 0 -0.9993514 -0.03601057 0 -0.9993514 -0.03601057 0 -0.9663018 -0.257412 0 -0.9663018 -0.257412 0 -0.8847652 -0.4660371 0 -0.8847652 -0.4660371 0 -0.7588663 -0.6512464 0 -0.7588663 -0.6512464 0 -0.5949559 -0.8037584 0 -0.5949559 -0.8037584 0 -0.4011773 -0.9160004 0 -0.4011773 -0.9160004 0 -0.1872803 -0.9823065 0 -0.1872803 -0.9823065 0 0.03595935 -0.9993533 0 0.03595935 -0.9993533 0 0.2574541 -0.9662905 0 0.2574541 -0.9662905 0 0.4660756 -0.8847449 0 0.4660756 -0.8847449 0 0.6512075 -0.7588997 0 0.6512075 -0.7588997 0 0.8037435 -0.594976 0 0.8037435 -0.594976 0 0.9160004 -0.4011773 0 0.9160004 -0.4011773 0 0.9823115 -0.1872543 0 0.9823115 -0.1872543 0 0.9993514 0.03601017 0 0.9993514 0.03601017 0 0.9663027 0.2574083 0 0.9663027 0.2574083 0 0.8847643 0.4660387 0 0.8847643 0.4660387 0 0.7588674 0.6512451 0 0.7588674 0.6512451 0 0.5949577 0.803757 0 0.5949577 0.803757 0 0.4011773 0.9160004 0 0.4011773 0.9160004 0 0.1872781 0.9823069 0 0.1872781 0.9823069 0 -0.03596108 0.9993532 0 -0.03596108 0.9993532 0 -0.2574523 0.966291 0 -0.2574523 0.966291 0 -0.466079 0.8847431 0 -0.466079 0.8847431 0 -0.6512078 0.7588994 0 -0.6512078 0.7588994 0 -0.8037426 0.5949771 0 -0.8037426 0.5949771 0 -0.9160004 0.4011773 0 -0.9160004 0.4011773 0 -0.9823053 0.1872868 0 -0.9823053 0.1872868 0 -0.9993521 -0.03599205 0 -0.9993521 -0.03599205 0 -0.9662884 -0.2574619 0 -0.9662884 -0.2574619 3.71482e-16 -0.8847681 -0.4660316 7.064329e-16 -0.8847681 -0.4660316 5.042571e-16 -0.7588857 -0.6512239 5.736573e-16 -0.7588857 -0.6512239 0 -0.5949494 -0.8037632 0 -0.5949494 -0.8037632 0 -0.4011773 -0.9160004 0 -0.4011773 -0.9160004 0 -0.1872882 -0.982305 0 -0.1872882 -0.982305 0 0.03598907 -0.9993522 0 0.03598907 -0.9993522 0 0.25746 -0.966289 0 0.25746 -0.966289 0 0.4660299 -0.884769 0 0.4660299 -0.884769 0 0.6512216 -0.7588876 0 0.6512216 -0.7588876 0 0.8037623 -0.5949505 0 0.8037623 -0.5949505 0 0.9160004 -0.4011773 0 0.9160004 -0.4011773 0 0.9823055 -0.1872854 0 0.9823055 -0.1872854 0 0.9993521 0.03599164 0 0.9993521 0.03599164 -7.533095e-17 0.9662894 0.2574582 -2.224147e-16 0.9662894 0.2574582 -1.120069e-16 0.8847672 0.4660333 -1.85739e-16 0.8847672 0.4660333 0 0.7588868 0.6512226 0 0.7588868 0.6512226 -3.735274e-16 0.5949512 0.8037618 -5.56008e-16 0.5949512 0.8037618 -4.88026e-16 0.4011773 0.9160004 -4.415094e-16 0.4011773 0.9160004 0 0.187286 0.9823054 0 0.187286 0.9823054 0 -0.0359908 0.9993521 0 -0.0359908 0.9993521 -5.046306e-16 -0.2574582 0.9662894 -6.12865e-16 -0.2574582 0.9662894 -6.422825e-16 -0.4660333 0.8847672 -4.752141e-16 -0.4660333 0.8847672 0 -0.6512219 0.7588874 0 -0.6512219 0.7588874 0 -0.8037615 0.5949516 0 -0.8037615 0.5949516 0</float_array>
          <technique_common>
            <accessor count="376" source="#normals-array-array" stride="3">
              <param type="float" name="X"/>
              <param type="float" name="Y"/>
              <param type="float" name="Z"/>
            </accessor>
          </technique_common>
        </source>
        <vertices id="verts-array-vertices">
          <input semantic="POSITION" source="#verts-array"/>
        </vertices>
        <triangles count="380" material="material0">
          <input offset="0" semantic="VERTEX" source="#verts-array-vertices"/>
          <input offset="1" semantic="NORMAL" source="#normals-array"/>
          <p>0 0 1 1 2 2 3 3 2 2 1 1 0 0 2 2 4 4 0 0 4 4 5 5 6 6 5 5 4 4 5 5 6 6 7 7 8 8 7 7 6 6 7 7 8 8 9 9 10 10 9 9 8 8 9 9 10 10 11 11 12 12 11 11 10 10 11 11 12 12 13 13 14 14 13 13 12 12 13 13 14 14 15 15 16 16 15 15 14 14 15 15 16 16 17 17 18 18 17 17 16 16 17 17 18 18 19 19 20 20 19 19 18 18 19 19 20 20 21 21 22 22 21 21 20 20 21 21 22 22 23 23 24 24 23 23 22 22 23 23 24 24 25 25 26 26 25 25 24 24 25 25 26 26 27 27 28 28 27 27 26 26 27 27 28 28 29 29 30 30 29 29 28 28 29 29 30 30 31 31 32 32 31 31 30 30 31 31 32 32 33 33 34 34 33 33 32 32 33 33 34 34 35 35 36 36 35 35 34 34 35 35 36 36 37 37 38 38 37 37 36 36 37 37 38 38 39 39 40 40 41 41 42 42 40 40 42 42 43 43 44 44 43 43 42 42 43 43 44 44 45 45 46 46 45 45 44 44 45 45 46 46 47 47 48 48 47 47 46 46 47 47 48 48 49 49 50 50 49 49 48 48 49 49 50 50 51 51 52 52 51 51 50 50 51 51 52 52 53 53 54 54 53 53 52 52 53 53 54 54 55 55 56 56 55 55 54 54 55 55 56 56 57 57 58 58 57 57 56 56 57 57 58 58 59 59 60 60 59 59 58 58 59 59 60 60 61 61 62 62 61 61 60 60 61 61 62 62 63 63 64 64 63 63 62 62 63 63 64 64 65 65 66 66 65 65 64 64 65 65 66 66 67 67 68 68 67 67 66 66 67 67 68 68 69 69 70 70 69 69 68 68 69 69 70 70 71 71 72 72 71 71 70 70 71 71 72 72 73 73 74 74 73 73 72 72 73 73 74 74 75 75 3 3 75 75 74 74 75 75 3 3 1 1 40 40 39 39 41 41 38 38 41 41 39 39 76 76 77 77 78 78 79 79 78 78 77 77 78 78 79 79 80 80 81 81 80 80 79 79 80 80 81 81 82 82 83 83 84 84 85 85 84 84 86 86 85 85 87 87 85 85 86 86 85 85 87 87 88 88 89 89 90 90 91 91 81 81 92 92 82 82 93 93 82 82 92 92 82 82 93 93 94 94 95 95 94 94 93 93 94 94 95 95 96 96 97 97 96 96 95 95 96 96 97 97 98 98 99 99 98 98 97 97 98 98 99 99 100 100 101 101 102 102 85 85 103 103 85 85 102 102 85 85 103 103 83 83 91 91 104 104 89 89 105 105 89 89 104 104 89 89 105 105 106 106 107 107 106 106 105 105 107 107 108 108 106 106 109 109 106 106 108 108 106 106 109 109 110 110 111 111 110 110 109 109 110 110 111 111 112 112 100 100 112 112 111 111 112 112 100 100 113 113 99 99 113 113 100 100 114 114 115 115 116 116 117 117 116 116 115 115 116 116 117 117 118 118 119 119 118 118 117 117 118 118 119 119 120 120 121 121 120 120 119 119 120 120 121 121 76 76 122 122 76 76 121 121 76 76 122 122 77 77 101 101 123 123 102 102 124 124 102 102 123 123 102 102 124 124 125 125 126 126 127 127 114 114 128 128 114 114 127 127 114 114 128 128 115 115 129 129 127 127 130 130 126 126 130 130 127 127 130 130 126 126 131 131 132 132 131 131 126 126 131 131 132 132 88 88 133 133 88 88 132 132 88 88 133 133 85 85 134 134 135 135 136 136 137 137 136 136 135 135 136 136 137 137 138 138 139 139 138 138 137 137 138 138 139 139 140 140 141 141 142 142 143 143 144 144 143 143 142 142 143 143 144 144 145 145 146 146 145 145 144 144 145 145 146 146 147 147 148 148 147 147 146 146 147 147 148 148 134 134 149 149 134 134 148 148 134 134 149 149 135 135 125 125 90 90 102 102 89 89 102 102 90 90 102 102 89 89 141 141 150 150 141 141 89 89 141 141 150 150 142 142 129 129 151 151 127 127 152 152 127 127 151 151 127 127 152 152 153 153 154 154 153 153 152 152 139 139 155 155 140 140 156 156 140 140 155 155 140 140 156 156 157 157 158 158 157 157 156 156 157 157 158 158 159 159 160 160 159 159 158 158 159 159 160 160 161 161 162 162 161 161 160 160 161 161 162 162 163 163 154 154 164 164 153 153 165 165 153 153 164 164 153 153 165 165 166 166 167 167 166 166 165 165 166 166 167 167 168 168 163 163 168 168 167 167 168 168 163 163 169 169 162 162 169 169 163 163 170 170 171 171 172 172 173 173 174 174 175 175 170 170 172 172 176 176 177 177 178 178 179 179 180 180 181 181 182 182 183 183 182 182 181 181 182 182 183 183 184 184 185 185 184 184 183 183 184 184 185 185 186 186 187 187 186 186 185 185 186 186 187 187 188 188 189 189 190 190 191 191 192 192 191 191 190 190 191 191 192 192 193 193 194 194 193 193 192 192 193 193 194 194 180 180 195 195 180 180 194 194 180 180 195 195 181 181 175 175 196 196 173 173 197 197 173 173 196 196 173 173 197 197 198 198 199 199 198 198 197 197 198 198 199 199 200 200 201 201 200 200 199 199 200 200 201 201 202 202 203 203 202 202 201 201 202 202 203 203 189 189 204 204 189 189 203 203 189 189 204 204 190 190 205 205 206 206 178 178 207 207 178 178 206 206 178 178 207 207 208 208 179 179 209 209 177 177 210 210 177 177 209 209 177 177 210 210 211 211 212 212 211 211 210 210 212 212 213 213 211 211 214 214 211 211 213 213 211 211 214 214 215 215 216 216 215 215 214 214 215 215 216 216 217 217 188 188 217 217 216 216 217 217 188 188 218 218 187 187 218 218 188 188 174 174 219 219 175 175 220 220 175 175 219 219 175 175 220 220 172 172 221 221 172 172 220 220 172 172 221 221 176 176 207 207 222 222 208 208 223 223 208 208 222 222 208 208 223 223 171 171 224 224 171 171 223 223 224 224 225 225 171 171 226 226 171 171 225 225 171 171 226 226 172 172 227 227 172 172 226 226 228 228 229 229 230 230 231 231 230 230 229 229 230 230 231 231 232 232 233 233 232 232 231 231 232 232 233 233 234 234 235 235 236 236 177 177 233 233 237 237 234 234 238 238 234 234 237 237 234 234 238 238 239 239 240 240 239 239 238 238 239 239 240 240 241 241 242 242 241 241 240 240 241 241 242 242 243 243 244 244 243 243 242 242 243 243 244 244 245 245 236 236 246 246 177 177 247 247 177 177 246 246 177 177 247 247 178 178 248 248 178 178 247 247 178 178 248 248 205 205 227 227 249 249 172 172 250 250 172 172 249 249 172 172 250 250 251 251 252 252 251 251 250 250 251 251 252 252 253 253 245 245 253 253 252 252 253 253 245 245 254 254 244 244 254 254 245 245 177 177 255 255 235 235 256 256 235 235 255 255 235 235 256 256 257 257 258 258 257 257 256 256 257 257 258 258 259 259 260 260 259 259 258 258 259 259 260 260 261 261 262 262 261 261 260 260 261 261 262 262 228 228 263 263 228 228 262 262 228 228 263 263 229 229 264 264 265 265 266 266 267 267 266 266 265 265 266 266 267 267 268 268 269 269 268 268 267 267 268 268 269 269 270 270 271 271 270 270 269 269 270 270 271 271 272 272 273 273 272 272 271 271 272 272 273 273 274 274 275 275 274 274 273 273 274 274 275 275 276 276 277 277 276 276 275 275 276 276 277 277 278 278 279 279 278 278 277 277 278 278 279 279 280 280 281 281 280 280 279 279 280 280 281 281 282 282 283 283 282 282 281 281 282 282 283 283 284 284 285 285 284 284 283 283 284 284 285 285 286 286 287 287 286 286 285 285 286 286 287 287 288 288 289 289 288 288 287 287 288 288 289 289 290 290 291 291 290 290 289 289 290 290 291 291 292 292 293 293 292 292 291 291 292 292 293 293 294 294 295 295 294 294 293 293 294 294 295 295 296 296 297 297 296 296 295 295 296 296 297 297 298 298 299 299 298 298 297 297 298 298 299 299 300 300 301 301 300 300 299 299 300 300 301 301 302 302 303 303 302 302 301 301 302 302 303 303 304 304 305 305 304 304 303 303 304 304 305 305 306 306 307 307 306 306 305 305 306 306 307 307 308 308 309 309 308 308 307 307 308 308 309 309 310 310 311 311 310 310 309 309 310 310 311 311 312 312 313 313 312 312 311 311 312 312 313 313 314 314 315 315 314 314 313 313 314 314 315 315 316 316 317 317 316 316 315 315 316 316 317 317 318 318 319 319 318 318 317 317 318 318 319 319 264 264 265 265 264 264 319 319 320 320 321 321 322 322 323 323 322 322 321 321 322 322 323 323 324 324 325 325 324 324 323 323 324 324 325 325 326 326 327 327 326 326 325 325 326 326 327 327 328 328 329 329 328 328 327 327 328 328 329 329 330 330 331 331 330 330 329 329 330 330 331 331 332 332 333 333 332 332 331 331 332 332 333 333 334 334 335 335 334 334 333 333 334 334 335 335 336 336 337 337 336 336 335 335 336 336 337 337 338 338 339 339 338 338 337 337 338 338 339 339 340 340 341 341 340 340 339 339 340 340 341 341 342 342 343 343 342 342 341 341 342 342 343 343 344 344 345 345 344 344 343 343 344 344 345 345 346 346 347 347 346 346 345 345 346 346 347 347 348 348 349 349 348 348 347 347 348 348 349 349 350 350 351 351 350 350 349 349 350 350 351 351 352 352 353 353 352 352 351 351 352 352 353 353 354 354 355 355 354 354 353 353 354 354 355 355 356 356 357 357 356 356 355 355 356 356 357 357 358 358 359 359 358 358 357 357 358 358 359 359 360 360 361 361 360 360 359 359 360 360 361 361 362 362 363 363 362 362 361 361 362 362 363 363 364 364 365 365 364 364 363 363 364 364 365 365 366 366 367 367 366 366 365 365 366 366 367 367 368 368 369 369 368 368 367 367 368 368 369 369 370 370 371 371 370 370 369 369 370 370 371 371 372 372 373 373 372 372 371 371 372 372 373 373 374 374 375 375 374 374 373 373 374 374 375 375 320 320 321 321 320 320 375 375</p>
        </triangles>
      </mesh>
    </geometry>
  </library_geometries>
  <library_materials>
    <material id="351db8e2876e4a169df5380fd39a945d" name="defaultmaterial">
      <instance_effect url="#11ceca62b1144473a906873f88d0592c"/>
    </material>
  </library_materials>
  <library_visual_scenes>
    <visual_scene id="scene">
      <node id="node0" name="node0">
        <instance_geometry url="#32e458cd1a7241d59de61f1a2d34abc0">
          <bind_material>
            <technique_common>
              <instance_material symbol="material0" target="#351db8e2876e4a169df5380fd39a945d"/>
            </technique_common>
          </bind_material>
        </instance_geometry>
      </node>
    </visual_scene>
  </library_visual_scenes>
  <scene>
    <instance_visual_scene url="#scene"/>
  </scene>
</COLLADA>
