<COLLADA xmlns="http://www.collada.org/2005/11/COLLADASchema" version="1.4.1">
  <asset>
    <created>2026-06-26T22:42:03.609970</created>
    <modified>2026-06-26T22:42:03.609970</modified>
    <up_axis>Y_UP</up_axis>
  </asset>
  <library_effects>
    <effect id="62dc42fdb07e4fb389373f98b8117784" name="62dc42fdb07e4fb389373f98b8117784">
      <profile_COMMON>
        <technique sid="common">
          <phong>
            <emission>
              <color>0.0 0.0 0.0 1.0</color>
            </emission>
            <ambient>
              <color>0.0 0.0 0.0 1.0</color>
            </ambient>
            <diffuse>
              <color>0.792156862745098 0.8196078431372549 0.9333333333333333 1.0</color>
            </diffuse>
            <specular>
              <color>0.0 0.0 0.0 1.0</color>
            </specular>
            <shininess>
              <float>0.0</float>
            </shininess>
            <reflective>
              <color>0.0 0.0 0.0 1.0</color>
            </reflective>
            <reflectivity>
              <float>0.0</float>
            </reflectivity>
            <transparent>
              <color>0.0 0.0 0.0 1.0</color>
            </transparent>
            <transparency>
              <float>1.0</float>
            </transparency>
          </phong>
        </technique>
        <extra>
          <technique profile="GOOGLEEARTH">
            <double_sided>0</double_sided>
          </technique>
        </extra>
      </profile_COMMON>
    </effect>
  </library_effects>
  <library_geometries>
    <geometry id="32515483b0274c94835c23bc7cccba71" name="c4674959e7a64afda3ecada1485c9e55">
      <mesh>
        <source id="verts-array">
          <float_array count="1800" id="verts-array-array">0.02187793 0.03359097 -0.01 0.0216893 0.03385726 -0.01 0.0239323 0.03546028 -0.01 0.02345838 0.03597168 -0.01 0.02143818 0.03406563 -0.01 0.0229029 0.03639309 -0.01 0.02228265 0.03671159 -0.01 0.02114167 0.03420189 -0.01 0.02161655 0.03691763 -0.01 -0.003243367 -0.006327198 -0.01 -0.004039894 -0.008988019 -0.01 -0.003565038 -0.006272314 -0.01 -0.004706019 -0.008782035 -0.01 -0.003861534 -0.006136046 -0.01 -3.809401e-05 -0.0009992783 -0.01 -0.002001546 -0.005447387 -0.01 -0.0002954254 -0.0009553706 -0.01 -0.0005326245 -0.0008463517 -0.01 0.004444846 0.005030492 -0.01 0.004414616 0.005355417 -0.01 0.0241578 0.03087719 -0.01 0.00430129 0.00566139 -0.01 0.004112658 0.005927675 -0.01 -0.006581156 -0.002947605 -0.01 0.01738699 0.03513819 -0.01 0.01952331 0.0330553 -0.01 0.02010661 0.03194975 -0.01 0.02040312 0.03181349 -0.01 0.02135571 0.03190214 -0.01 0.02104968 0.03178882 -0.01 0.0207248 0.03175862 -0.01 0.02092476 0.03700478 -0.01 0.02081999 0.03425675 -0.01 0.02022837 0.03697054 -0.01 0.02049511 0.03422656 -0.01 0.01954846 0.0368158 -0.01 -0.002612443 -0.006183659 -0.01 -0.00197184 -0.008886263 -0.01 -0.002918456 -0.00629696 -0.01 -0.002651717 -0.009040939 -0.01 -0.003348119 -0.009075202 -0.01 -0.002137814 -0.005743888 -0.01 -0.0002317388 -0.007764111 -0.01 -0.00234618 -0.005995017 -0.01 -0.0007431877 -0.008238 -0.01 -0.001329159 -0.008615877 -0.01 0.0001896519 -0.007208609 -0.01 0.0002218352 -0.0009750861 -0.01 0.0004666485 -0.0008844426 -0.01 0.003148156 0.00382904 -0.01 0.003473041 0.003859238 -0.01 0.003779064 0.003972553 -0.01 0.004045339 0.004161216 -0.01 0.004253692 0.004412324 -0.01 0.004389948 0.004708805 -0.01 0.02431017 0.03487428 -0.01 0.02458056 0.03423162 -0.01 0.02199126 0.033285 -0.01 0.0247352 0.03355168 -0.01 0.02202149 0.03296008 -0.01 0.02476949 0.03285532 -0.01 0.02196659 0.03263839 -0.01 0.0189058 0.03654546 -0.01 0.02018909 0.03411324 -0.01 0.01831984 0.0361676 -0.01 0.01992281 0.03392458 -0.01 0.01780839 0.0356937 -0.01 0.01971446 0.03367347 -0.01 0.0195782 0.03337699 -0.01 0.002612445 0.006183658 -0.01 0.002346166 0.005994997 -0.01 0.01966686 0.0324244 -0.01 -0.001946661 -0.00512572 -0.01 -0.001976899 -0.00480081 -0.01 -0.002090201 -0.004494797 -0.01 -0.003473046 -0.003859254 -0.01 -0.003779062 -0.003972554 -0.01 -0.006899681 -0.003567842 -0.01 -0.004045328 -0.004161194 -0.01 0.0006796576 -0.000733529 -0.01 0.0008463512 -0.0005326256 -0.01 0.0009553659 -0.0002954239 -0.01 0.02162198 0.0320908 -0.01 0.02183033 0.03234191 -0.01 0.02447633 0.03149743 -0.01 0.02468232 0.03216356 -0.01 0.001976894 0.004800793 -0.01 0.002090218 0.004494821 -0.01 0.0005326266 0.0008463504 -0.01 0.002278842 0.004228542 -0.01 0.0007335326 0.0006796611 -0.01 0.002529972 0.004020167 -0.01 0.0008844454 0.0004666525 -0.01 0.0009750849 0.0002218404 -0.01 0.003861536 0.006136044 -0.01 0.003565026 0.00627231 -0.01 0.01985548 0.03215813 -0.01 0.003243352 0.006327171 -0.01 0.002918469 0.006296972 -0.01 -0.000955369 0.0002954258 -0.01 -0.0009992771 3.809353e-05 -0.01 -0.0009750871 -0.0002218391 -0.01 -0.0008844442 -0.0004666533 -0.01 -0.005326254 -0.008463511 -0.01 -0.005881754 -0.008042122 -0.01 -0.00411267 -0.005927679 -0.01 -0.006355645 -0.007530671 -0.01 -0.004301305 -0.005661416 -0.01 0.002826474 0.003883906 -0.01 0.0009992741 -3.809163e-05 -0.01 0.0002954274 0.0009553693 -0.01 0.002001557 0.005447408 -0.01 0.001946663 0.005125719 -0.01 3.80952e-05 0.0009992775 -0.01 -0.0002218374 0.0009750875 -0.01 0.002137815 0.005743887 -0.01 -0.002278843 -0.004228529 -0.01 -0.00252997 -0.004020168 -0.01 -0.0007335305 -0.0006796623 -0.01 -0.002826475 -0.003883894 -0.01 -0.003148138 -0.003829015 -0.01 -0.004253691 -0.004412325 -0.01 -0.004389962 -0.004708824 -0.01 -0.007105665 -0.004233966 -0.01 -0.004444843 -0.005030493 -0.01 -0.006733522 -0.0069447 -0.01 -0.007003908 -0.006302018 -0.01 -0.004414604 -0.005355405 -0.01 -0.007158584 -0.005622142 -0.01 -0.007192848 -0.004925741 -0.01 0.01955354 0.03273038 -0.01 -0.0004666516 0.0008844446 -0.01 -0.0006796607 0.0007335309 -0.01 -0.00084635 0.0005326249 -0.01 0.004071354 0.01397942 0 0.003861536 0.006136044 0 0.01084216 0.009718411 0 0.004112658 0.005927675 0 0.002612445 0.006183658 0 0.002918469 0.006296972 0 0.00430129 0.00566139 0 0.004414616 0.005355417 0 0.004444846 0.005030492 0 -0.006581156 -0.002947605 0 -0.0009992771 3.809353e-05 0 -0.000955369 0.0002954258 0 0.003243352 0.006327171 0 0.003565026 0.00627231 0 0.002278842 0.004228542 0 0.002090218 0.004494821 0 0.001976894 0.004800793 0 0.001946663 0.005125719 0 0.002001557 0.005447408 0 0.002137815 0.005743887 0 0.002346166 0.005994997 0 0.004389948 0.004708805 0 0.004253692 0.004412324 0 0.004045339 0.004161216 0 0.003779064 0.003972553 0 0.003473041 0.003859238 0 0.0008463512 -0.0005326256 0 0.003148156 0.00382904 0 0.0009553659 -0.0002954239 0 0.002826474 0.003883906 0 -0.0002954254 -0.0009553706 0 -0.004045328 -0.004161194 0 -3.809401e-05 -0.0009992783 0 -0.003779062 -0.003972554 0 0.0002218352 -0.0009750861 0 0.0004666485 -0.0008844426 0 -0.003473046 -0.003859254 0 -0.003148138 -0.003829015 0 -0.002826475 -0.003883894 0 -0.00252997 -0.004020168 0 0.0006796576 -0.000733529 0 -0.002278843 -0.004228529 0 0.0008844454 0.0004666525 0 0.0009750849 0.0002218404 0 0.0009992741 -3.809163e-05 0 -0.002090201 -0.004494797 0 -0.001976899 -0.00480081 0 0.0001896519 -0.007208609 0 -0.001946661 -0.00512572 0 -0.00084635 0.0005326249 0 -0.0006796607 0.0007335309 0 -0.0004666516 0.0008844446 0 -0.0002218374 0.0009750875 0 3.80952e-05 0.0009992775 0 0.0002954274 0.0009553693 0 0.002529972 0.004020167 0 0.0005326266 0.0008463504 0 0.0007335326 0.0006796611 0 -0.002001546 -0.005447387 0 -0.002137814 -0.005743888 0 -0.0002317388 -0.007764111 0 -0.00234618 -0.005995017 0 -0.002918456 -0.00629696 0 -0.00197184 -0.008886263 0 -0.002612443 -0.006183659 0 -0.001329159 -0.008615877 0 -0.0007431877 -0.008238 0 -0.003565038 -0.006272314 0 -0.004039894 -0.008988019 0 -0.003243367 -0.006327198 0 -0.003348119 -0.009075202 0 -0.002651717 -0.009040939 0 -0.0005326245 -0.0008463517 0 -0.0007335305 -0.0006796623 0 -0.0008844442 -0.0004666533 0 -0.004253691 -0.004412325 0 -0.006899681 -0.003567842 0 -0.004389962 -0.004708824 0 -0.007105665 -0.004233966 0 -0.004444843 -0.005030493 0 -0.007192848 -0.004925741 0 -0.004414604 -0.005355405 0 -0.00411267 -0.005927679 0 -0.005881754 -0.008042122 0 -0.003861534 -0.006136046 0 -0.005326254 -0.008463511 0 -0.004706019 -0.008782035 0 -0.0009750871 -0.0002218391 0 -0.007158584 -0.005622142 0 -0.007003908 -0.006302018 0 -0.004301305 -0.005661416 0 -0.006733522 -0.0069447 0 -0.006355645 -0.007530671 0 0.01084216 0.009718411 0 0.0001896519 -0.007208609 0 0.0001896519 -0.007208609 -0.01 0.0241578 0.03087719 -0.01 0.0241578 0.03087719 -0.007 0.01297266 0.01310382 -0.007 0.01273565 0.01272719 -0.00694986 0.01251045 0.01236935 -0.00680194 0.01230848 0.01204842 -0.00656366 0.0121398 0.01178038 -0.00624698 0.01201293 0.01157878 -0.00586777 0.01190741 0.01141111 -0.002 0.01190741 0.01141111 -0.005 0.0119341 0.01145352 -0.00544504 0.01188073 0.01136871 -0.00155496 0.0118019 0.01124345 -0.00113223 0.01167503 0.01104185 -0.00075302 0.01150635 0.01077381 -0.00043634 0.01130437 0.01045287 -0.00019806 0.01107918 0.01009504 -5.014e-05 -0.0002317388 -0.007764111 0 -0.0002317388 -0.007764111 -0.01 -0.0007431877 -0.008238 0 -0.0007431877 -0.008238 -0.01 -0.001329159 -0.008615877 0 -0.001329159 -0.008615877 -0.01 -0.00197184 -0.008886263 0 -0.00197184 -0.008886263 -0.01 -0.002651717 -0.009040939 0 -0.002651717 -0.009040939 -0.01 -0.003348119 -0.009075202 0 -0.003348119 -0.009075202 -0.01 -0.004039894 -0.008988019 0 -0.004039894 -0.008988019 -0.01 -0.004706019 -0.008782035 0 -0.004706019 -0.008782035 -0.01 -0.005326254 -0.008463511 0 -0.005326254 -0.008463511 -0.01 -0.005881754 -0.008042122 0 -0.005881754 -0.008042122 -0.01 -0.006355645 -0.007530671 0 -0.006355645 -0.007530671 -0.01 -0.006733522 -0.0069447 0 -0.006733522 -0.0069447 -0.01 -0.007003908 -0.006302018 0 -0.007003908 -0.006302018 -0.01 -0.007158584 -0.005622142 0 -0.007158584 -0.005622142 -0.01 -0.007192848 -0.004925741 0 -0.007192848 -0.004925741 -0.01 -0.007105665 -0.004233966 0 -0.007105665 -0.004233966 -0.01 -0.006899681 -0.003567842 0 -0.006899681 -0.003567842 -0.01 -0.006581156 -0.002947605 0 -0.006581156 -0.002947605 -0.01 0.005739644 0.01663036 -0.00680194 0.005964838 0.01698819 -0.00694986 0.006201857 0.01736482 -0.007 0.01738699 0.03513819 -0.01 0.01738699 0.03513819 -0.007 0.00516329 0.01571452 -0.00544504 0.005242119 0.01583978 -0.00586777 0.00536899 0.01604138 -0.00624698 0.005537672 0.01630942 -0.00656366 0.005136605 0.01567212 -0.002 0.005136605 0.01567212 -0.005 0.004071354 0.01397942 0 0.004308373 0.01435604 -5.014e-05 0.005109921 0.01562972 -0.00155496 0.004735538 0.01503482 -0.00043634 0.004904221 0.01530285 -0.00075302 0.005031092 0.01550446 -0.00113223 0.004533567 0.01471388 -0.00019806 0.01780839 0.0356937 -0.007 0.01780839 0.0356937 -0.01 0.01831984 0.0361676 -0.007 0.01831984 0.0361676 -0.01 0.0189058 0.03654546 -0.007 0.0189058 0.03654546 -0.01 0.01954846 0.0368158 -0.007 0.01954846 0.0368158 -0.01 0.02022837 0.03697054 -0.007 0.02022837 0.03697054 -0.01 0.02092476 0.03700478 -0.007 0.02092476 0.03700478 -0.01 0.02161655 0.03691763 -0.007 0.02161655 0.03691763 -0.01 0.02228265 0.03671159 -0.007 0.02228265 0.03671159 -0.01 0.0229029 0.03639309 -0.007 0.0229029 0.03639309 -0.01 0.02345838 0.03597168 -0.007 0.02345838 0.03597168 -0.01 0.0239323 0.03546028 -0.007 0.0239323 0.03546028 -0.01 0.02431017 0.03487428 -0.007 0.02431017 0.03487428 -0.01 0.02458056 0.03423162 -0.007 0.02458056 0.03423162 -0.01 0.0247352 0.03355168 -0.007 0.0247352 0.03355168 -0.01 0.02476949 0.03285532 -0.007 0.02476949 0.03285532 -0.01 0.02468232 0.03216356 -0.007 0.02468232 0.03216356 -0.01 0.02447633 0.03149743 -0.007 0.02447633 0.03149743 -0.01 0.01190741 0.01141111 -0.002 0.01190741 0.01141111 -0.005 0.005136605 0.01567212 -0.002 0.005136605 0.01567212 -0.005 0.006201857 0.01736482 -0.007 0.02010661 0.03194975 -0.007 0.01985548 0.03215813 -0.007 0.02081999 0.03425675 -0.007 0.02114167 0.03420189 -0.007 0.02161655 0.03691763 -0.007 0.02228265 0.03671159 -0.007 0.02143818 0.03406563 -0.007 0.0229029 0.03639309 -0.007 0.02345838 0.03597168 -0.007 0.0216893 0.03385726 -0.007 0.0239323 0.03546028 -0.007 0.02040312 0.03181349 -0.007 0.01297266 0.01310382 -0.007 0.0207248 0.03175862 -0.007 0.02092476 0.03700478 -0.007 0.02022837 0.03697054 -0.007 0.02049511 0.03422656 -0.007 0.01954846 0.0368158 -0.007 0.02018909 0.03411324 -0.007 0.0189058 0.03654546 -0.007 0.01992281 0.03392458 -0.007 0.0241578 0.03087719 -0.007 0.02135571 0.03190214 -0.007 0.02104968 0.03178882 -0.007 0.01952331 0.0330553 -0.007 0.01738699 0.03513819 -0.007 0.01955354 0.03273038 -0.007 0.01966686 0.0324244 -0.007 0.02431017 0.03487428 -0.007 0.02187793 0.03359097 -0.007 0.02458056 0.03423162 -0.007 0.02199126 0.033285 -0.007 0.0247352 0.03355168 -0.007 0.02476949 0.03285532 -0.007 0.02202149 0.03296008 -0.007 0.02468232 0.03216356 -0.007 0.02196659 0.03263839 -0.007 0.02447633 0.03149743 -0.007 0.02183033 0.03234191 -0.007 0.02162198 0.0320908 -0.007 0.0195782 0.03337699 -0.007 0.01971446 0.03367347 -0.007 0.01780839 0.0356937 -0.007 0.01831984 0.0361676 -0.007 -0.00252997 -0.004020168 -0.01 -0.00252997 -0.004020168 0 -0.002826475 -0.003883894 -0.01 -0.002826475 -0.003883894 0 -0.003148138 -0.003829015 -0.01 -0.003148138 -0.003829015 0 -0.003473046 -0.003859254 -0.01 -0.003473046 -0.003859254 0 -0.003779062 -0.003972554 -0.01 -0.003779062 -0.003972554 0 -0.004045328 -0.004161194 -0.01 -0.004045328 -0.004161194 0 -0.004253691 -0.004412325 -0.01 -0.004253691 -0.004412325 0 -0.004389962 -0.004708824 -0.01 -0.004389962 -0.004708824 0 -0.004444843 -0.005030493 -0.01 -0.004444843 -0.005030493 0 -0.004414604 -0.005355405 -0.01 -0.004414604 -0.005355405 0 -0.004301305 -0.005661416 -0.01 -0.004301305 -0.005661416 0 -0.00411267 -0.005927679 -0.01 -0.00411267 -0.005927679 0 -0.003861534 -0.006136046 -0.01 -0.003861534 -0.006136046 0 -0.003565038 -0.006272314 -0.01 -0.003565038 -0.006272314 0 -0.003243367 -0.006327198 -0.01 -0.003243367 -0.006327198 0 -0.002918456 -0.00629696 -0.01 -0.002918456 -0.00629696 0 -0.002612443 -0.006183659 -0.01 -0.002612443 -0.006183659 0 -0.00234618 -0.005995017 -0.01 -0.00234618 -0.005995017 0 -0.002137814 -0.005743888 -0.01 -0.002137814 -0.005743888 0 -0.002001546 -0.005447387 -0.01 -0.002001546 -0.005447387 0 -0.001946661 -0.00512572 -0.01 -0.001946661 -0.00512572 0 -0.001976899 -0.00480081 -0.01 -0.001976899 -0.00480081 0 -0.002090201 -0.004494797 -0.01 -0.002090201 -0.004494797 0 -0.002278843 -0.004228529 -0.01 -0.002278843 -0.004228529 0 0.003861536 0.006136044 -0.01 0.003861536 0.006136044 0 0.003565026 0.00627231 -0.01 0.003565026 0.00627231 0 0.003243352 0.006327171 -0.01 0.003243352 0.006327171 0 0.002918469 0.006296972 -0.01 0.002918469 0.006296972 0 0.002612445 0.006183658 -0.01 0.002612445 0.006183658 0 0.002346166 0.005994997 -0.01 0.002346166 0.005994997 0 0.002137815 0.005743887 -0.01 0.002137815 0.005743887 0 0.002001557 0.005447408 -0.01 0.002001557 0.005447408 0 0.001946663 0.005125719 -0.01 0.001946663 0.005125719 0 0.001976894 0.004800793 -0.01 0.001976894 0.004800793 0 0.002090218 0.004494821 -0.01 0.002090218 0.004494821 0 0.002278842 0.004228542 -0.01 0.002278842 0.004228542 0 0.002529972 0.004020167 -0.01 0.002529972 0.004020167 0 0.002826474 0.003883906 -0.01 0.002826474 0.003883906 0 0.003148156 0.00382904 -0.01 0.003148156 0.00382904 0 0.003473041 0.003859238 -0.01 0.003473041 0.003859238 0 0.003779064 0.003972553 -0.01 0.003779064 0.003972553 0 0.004045339 0.004161216 -0.01 0.004045339 0.004161216 0 0.004253692 0.004412324 -0.01 0.004253692 0.004412324 0 0.004389948 0.004708805 -0.01 0.004389948 0.004708805 0 0.004444846 0.005030492 -0.01 0.004444846 0.005030492 0 0.004414616 0.005355417 -0.01 0.004414616 0.005355417 0 0.00430129 0.00566139 -0.01 0.00430129 0.00566139 0 0.004112658 0.005927675 -0.01 0.004112658 0.005927675 0 0.01107918 0.01009504 -5.014e-05 0.004308373 0.01435604 -5.014e-05 0.01130437 0.01045287 -0.00019806 0.004533567 0.01471388 -0.00019806 0.01150635 0.01077381 -0.00043634 0.004735538 0.01503482 -0.00043634 0.01167503 0.01104185 -0.00075302 0.004904221 0.01530285 -0.00075302 0.0118019 0.01124345 -0.00113223 0.005031092 0.01550446 -0.00113223 0.01188073 0.01136871 -0.00155496 0.005109921 0.01562972 -0.00155496 0.00516329 0.01571452 -0.00544504 0.0119341 0.01145352 -0.00544504 0.005242119 0.01583978 -0.00586777 0.01201293 0.01157878 -0.00586777 0.00536899 0.01604138 -0.00624698 0.0121398 0.01178038 -0.00624698 0.005537672 0.01630942 -0.00656366 0.01230848 0.01204842 -0.00656366 0.005739644 0.01663036 -0.00680194 0.01251045 0.01236935 -0.00680194 0.005964838 0.01698819 -0.00694986 0.01273565 0.01272719 -0.00694986 0.0005326266 0.0008463504 -0.01 0.0005326266 0.0008463504 0 0.0002954274 0.0009553693 -0.01 0.0002954274 0.0009553693 0 3.80952e-05 0.0009992775 -0.01 3.80952e-05 0.0009992775 0 -0.0002218374 0.0009750875 -0.01 -0.0002218374 0.0009750875 0 -0.0004666516 0.0008844446 -0.01 -0.0004666516 0.0008844446 0 -0.0006796607 0.0007335309 -0.01 -0.0006796607 0.0007335309 0 -0.00084635 0.0005326249 -0.01 -0.00084635 0.0005326249 0 -0.000955369 0.0002954258 -0.01 -0.000955369 0.0002954258 0 -0.0009992771 3.809353e-05 -0.01 -0.0009992771 3.809353e-05 0 -0.0009750871 -0.0002218391 -0.01 -0.0009750871 -0.0002218391 0 -0.0008844442 -0.0004666533 -0.01 -0.0008844442 -0.0004666533 0 -0.0007335305 -0.0006796623 -0.01 -0.0007335305 -0.0006796623 0 -0.0005326245 -0.0008463517 -0.01 -0.0005326245 -0.0008463517 0 -0.0002954254 -0.0009553706 -0.01 -0.0002954254 -0.0009553706 0 -3.809401e-05 -0.0009992783 -0.01 -3.809401e-05 -0.0009992783 0 0.0002218352 -0.0009750861 -0.01 0.0002218352 -0.0009750861 0 0.0004666485 -0.0008844426 -0.01 0.0004666485 -0.0008844426 0 0.0006796576 -0.000733529 -0.01 0.0006796576 -0.000733529 0 0.0008463512 -0.0005326256 -0.01 0.0008463512 -0.0005326256 0 0.0009553659 -0.0002954239 -0.01 0.0009553659 -0.0002954239 0 0.0009992741 -3.809163e-05 -0.01 0.0009992741 -3.809163e-05 0 0.0009750849 0.0002218404 -0.01 0.0009750849 0.0002218404 0 0.0008844454 0.0004666525 -0.01 0.0008844454 0.0004666525 0 0.0007335326 0.0006796611 -0.01 0.0007335326 0.0006796611 0 0.02143818 0.03406563 -0.01 0.02143818 0.03406563 -0.007 0.02114167 0.03420189 -0.01 0.02114167 0.03420189 -0.007 0.02081999 0.03425675 -0.01 0.02081999 0.03425675 -0.007 0.02049511 0.03422656 -0.01 0.02049511 0.03422656 -0.007 0.02018909 0.03411324 -0.01 0.02018909 0.03411324 -0.007 0.01992281 0.03392458 -0.01 0.01992281 0.03392458 -0.007 0.01971446 0.03367347 -0.01 0.01971446 0.03367347 -0.007 0.0195782 0.03337699 -0.01 0.0195782 0.03337699 -0.007 0.01952331 0.0330553 -0.01 0.01952331 0.0330553 -0.007 0.01955354 0.03273038 -0.01 0.01955354 0.03273038 -0.007 0.01966686 0.0324244 -0.01 0.01966686 0.0324244 -0.007 0.01985548 0.03215813 -0.01 0.01985548 0.03215813 -0.007 0.02010661 0.03194975 -0.01 0.02010661 0.03194975 -0.007 0.02040312 0.03181349 -0.01 0.02040312 0.03181349 -0.007 0.0207248 0.03175862 -0.01 0.0207248 0.03175862 -0.007 0.02104968 0.03178882 -0.01 0.02104968 0.03178882 -0.007 0.02135571 0.03190214 -0.01 0.02135571 0.03190214 -0.007 0.02162198 0.0320908 -0.01 0.02162198 0.0320908 -0.007 0.02183033 0.03234191 -0.01 0.02183033 0.03234191 -0.007 0.02196659 0.03263839 -0.01 0.02196659 0.03263839 -0.007 0.02202149 0.03296008 -0.01 0.02202149 0.03296008 -0.007 0.02199126 0.033285 -0.01 0.02199126 0.033285 -0.007 0.02187793 0.03359097 -0.01 0.02187793 0.03359097 -0.007 0.0216893 0.03385726 -0.01 0.0216893 0.03385726 -0.007</float_array>
          <technique_common>
            <accessor count="600" source="#verts-array-array" stride="3">
              <param type="float" name="X"/>
              <param type="float" name="Y"/>
              <param type="float" name="Z"/>
            </accessor>
          </technique_common>
        </source>
        <source id="normals-array">
          <float_array count="1800" id="normals-array-array">0 0 -1 0 0 -1 0 0 -1 0 0 -1 0 0 -1 0 0 -1 0 0 -1 0 0 -1 0 0 -1 0 0 -1 0 0 -1 0 0 -1 0 0 -1 0 0 -1 0 0 -1 0 0 -1 0 0 -1 0 0 -1 0 0 -1 0 0 -1 0 0 -1 0 0 -1 0 0 -1 0 0 -1 0 0 -1 0 0 -1 0 0 -1 0 0 -1 0 0 -1 0 0 -1 0 0 -1 0 0 -1 0 0 -1 0 0 -1 0 0 -1 0 0 -1 0 0 -1 0 0 -1 0 0 -1 0 0 -1 0 0 -1 0 0 -1 0 0 -1 0 0 -1 0 0 -1 0 0 -1 0 0 -1 0 0 -1 0 0 -1 0 0 -1 0 0 -1 0 0 -1 0 0 -1 0 0 -1 0 0 -1 0 0 -1 0 0 -1 0 0 -1 0 0 -1 0 0 -1 0 0 -1 0 0 -1 0 0 -1 0 0 -1 0 0 -1 0 0 -1 0 0 -1 0 0 -1 0 0 -1 0 0 -1 0 0 -1 0 0 -1 0 0 -1 0 0 -1 0 0 -1 0 0 -1 0 0 -1 0 0 -1 0 0 -1 0 0 -1 0 0 -1 0 0 -1 0 0 -1 0 0 -1 0 0 -1 0 0 -1 0 0 -1 0 0 -1 0 0 -1 0 0 -1 0 0 -1 0 0 -1 0 0 -1 0 0 -1 0 0 -1 0 0 -1 0 0 -1 0 0 -1 0 0 -1 0 0 -1 0 0 -1 0 0 -1 0 0 -1 0 0 -1 0 0 -1 0 0 -1 0 0 -1 0 0 -1 0 0 -1 0 0 -1 0 0 -1 0 0 -1 0 0 -1 0 0 -1 0 0 -1 0 0 -1 0 0 -1 0 0 -1 0 0 -1 0 0 -1 0 0 -1 0 0 -1 0 0 -1 0 0 -1 0 0 -1 0 0 -1 0 0 -1 0 0 -1 0 0 -1 0 0 -1 0 0 -1 0 0 -1 0 0 -1 0 0 -1 0.02986487 0.04745579 0.9984268 0 0 1 0.02986487 0.04745579 0.9984268 0 0 1 0 0 1 0 0 1 0 0 1 0 0 1 0 0 1 0 0 1 0 0 1 0 0 1 0 0 1 0 0 1 0 0 1 0 0 1 0 0 1 0 0 1 0 0 1 0 0 1 0 0 1 0 0 1 0 0 1 0 0 1 0 0 1 0 0 1 0 0 1 0 0 1 0 0 1 0 0 1 0 0 1 0 0 1 0 0 1 0 0 1 0 0 1 0 0 1 0 0 1 0 0 1 0 0 1 0 0 1 0 0 1 0 0 1 0 0 1 0 0 1 0 0 1 0 0 1 0 0 1 0 0 1 0 0 1 0 0 1 0 0 1 0 0 1 0 0 1 0 0 1 0 0 1 0 0 1 0 0 1 0 0 1 0 0 1 0 0 1 0 0 1 0 0 1 0 0 1 0 0 1 0 0 1 0 0 1 0 0 1 0 0 1 0 0 1 0 0 1 0 0 1 0 0 1 0 0 1 0 0 1 0 0 1 0 0 1 0 0 1 0 0 1 0 0 1 0 0 1 0 0 1 0 0 1 0 0 1 0 0 1 0 0 1 0 0 1 0 0 1 0 0 1 0 0 1 0 0 1 0 0 1 0 0 1 0 0 1 0.846351 -0.5326255 7.397603e-16 0.8223123 -0.5690365 3.566211e-17 0.8223123 -0.5690365 2.388364e-17 0.8687784 -0.495201 0 0.8687784 -0.495201 0 0.846351 -0.5326255 0 0.846351 -0.5326255 1.152859e-15 0.846351 -0.5326255 5.615911e-15 0.846351 -0.5326255 -3.456491e-15 0.846351 -0.5326255 -8.495614e-16 0.846351 -0.5326255 5.383397e-16 0.846351 -0.5326255 1.43928e-15 0.846351 -0.5326255 -1.161695e-15 0.846351 -0.5326255 1.004624e-15 0.846351 -0.5326255 3.654763e-15 0.846351 -0.5326255 -6.443611e-15 0.846351 -0.5326255 3.223309e-15 0.846351 -0.5326255 2.213002e-15 0.846351 -0.5326255 -1.0617e-14 0.846351 -0.5326255 2.550578e-14 0.7410033 -0.6715014 1.657332e-17 0.7410033 -0.6715014 0 0.6131409 -0.7899736 0 0.6131409 -0.7899736 0 0.4666501 -0.884442 0 0.4666501 -0.884442 0 0.3059794 -0.9520381 0 0.3059794 -0.9520381 0 0.1360067 -0.9907079 0 0.1360067 -0.9907079 0 -0.03809363 -0.9992742 0 -0.03809363 -0.9992742 0 -0.211035 -0.9774785 0 -0.211035 -0.9774785 0 -0.3775661 -0.9259827 0 -0.3775661 -0.9259827 0 -0.5326256 -0.846351 0 -0.5326256 -0.846351 0 -0.6715012 -0.7410035 0 -0.6715012 -0.7410035 0 -0.7899733 -0.6131413 0 -0.7899733 -0.6131413 0 -0.884442 -0.4666501 0 -0.884442 -0.4666501 0 -0.9520381 -0.3059794 0 -0.9520381 -0.3059794 0 -0.9907079 -0.1360071 0 -0.9907079 -0.1360071 0 -0.9992742 0.03809325 0 -0.9992742 0.03809325 0 -0.9774785 0.2110348 0 -0.9774785 0.2110348 0 -0.9259827 0.377566 0 -0.9259827 0.377566 0 -0.8687786 0.4952007 -2.446691e-17 -0.8687786 0.4952007 -7.559451e-18 -0.846351 0.5326255 -1.011567e-14 -0.846351 0.5326255 -2.034174e-14 -0.846351 0.5326255 -1.19779e-15 -0.8223125 0.5690361 1.815447e-17 -0.8223125 0.5690361 0 -0.846351 0.5326255 -1.12439e-15 -0.846351 0.5326255 1.964012e-15 -0.846351 0.5326255 2.359893e-15 -0.846351 0.5326255 3.456491e-15 -0.846351 0.5326255 -7.023033e-16 -0.846351 0.5326255 1.101988e-15 -0.846351 0.5326255 -5.39629e-16 -0.846351 0.5326255 5.056401e-16 -0.846351 0.5326255 -2.254326e-15 -0.846351 0.5326255 -2.966877e-17 -0.846351 0.5326255 -1.081606e-14 -0.846351 0.5326255 5.528628e-16 -0.846351 0.5326255 1.172706e-15 -0.7410052 0.6714993 0 -0.7410052 0.6714993 0 -0.613138 0.7899758 0 -0.613138 0.7899758 0 -0.4666265 0.8844545 0 -0.4666265 0.8844545 0 -0.3059936 0.9520336 0 -0.3059936 0.9520336 0 -0.1360306 0.9907046 0 -0.1360306 0.9907046 0 0.0380855 0.9992745 0 0.0380855 0.9992745 0 0.2110569 0.9774738 0 0.2110569 0.9774738 0 0.377585 0.9259749 0 0.377585 0.9259749 0 0.5326255 0.846351 0 0.5326255 0.846351 0 0.6714865 0.7410168 0 0.6714865 0.7410168 0 0.78996 0.6131584 0 0.78996 0.6131584 0 0.8844455 0.4666435 0 0.8844455 0.4666435 0 0.9520453 0.3059572 0 0.9520453 0.3059572 0 0.9907099 0.1359923 0 0.9907099 0.1359923 0 0.9992752 -0.03806664 0 0.9992752 -0.03806664 0 0.9774793 -0.2110313 0 0.9774793 -0.2110313 0 0.9259816 -0.3775686 0 0.9259816 -0.3775686 0 0.5317891 0.8450219 0.05602175 0.5317891 0.8450219 0.05602175 0.5317891 0.8450219 0.05602175 0.5317891 0.8450219 0.05602175 0.02986487 0.04745579 0.9984268 0 0 1 0 0 1 0 0 1 0 0 1 0 0 1 0 0 1 0 0 1 0 0 1 0 0 1 0 0 1 0 0 1 0 0 1 0.02986487 0.04745579 0.9984268 0 0 1 0 0 1 0 0 1 0 0 1 0 0 1 0 0 1 0 0 1 0 0 1 0 0 1 0 0 1 0 0 1 0 0 1 0 0 1 0 0 1 0 0 1 0 0 1 0 0 1 0 0 1 0 0 1 0 0 1 0 0 1 0 0 1 0 0 1 0 0 1 0 0 1 0 0 1 0 0 1 0 0 1 0 0 1 0 0 1 0 0 1 -0.5326272 -0.84635 0 -0.5326272 -0.84635 0 -0.2954206 -0.9553673 0 -0.2954206 -0.9553673 0 -0.03808009 -0.9992747 0 -0.03808009 -0.9992747 0 0.2218366 -0.9750839 0 0.2218366 -0.9750839 0 0.4666408 -0.8844469 0 0.4666408 -0.8844469 0 0.679657 -0.7335301 0 0.679657 -0.7335301 0 0.846351 -0.5326255 0 0.846351 -0.5326255 0 0.9553666 -0.2954228 0 0.9553666 -0.2954228 0 0.9992746 -0.03808276 0 0.9992746 -0.03808276 0 0.9750835 0.2218382 0 0.9750835 0.2218382 0 0.8844482 0.4666384 0 0.8844482 0.4666384 0 0.7335316 0.6796553 0 0.7335316 0.6796553 0 0.5326238 0.8463521 0 0.5326238 0.8463521 0 0.2954237 0.9553663 0 0.2954237 0.9553663 0 0.03808816 0.9992744 0 0.03808816 0.9992744 0 -0.2218362 0.9750839 0 -0.2218362 0.9750839 0 -0.4666479 0.8844432 0 -0.4666479 0.8844432 0 -0.6796578 0.7335293 0 -0.6796578 0.7335293 0 -0.846351 0.5326255 0 -0.846351 0.5326255 0 -0.9553663 0.2954239 0 -0.9553663 0.2954239 0 -0.9992743 0.03809085 0 -0.9992743 0.03809085 0 -0.9750834 -0.2218386 0 -0.9750834 -0.2218386 0 -0.8844444 -0.4666456 0 -0.8844444 -0.4666456 0 -0.7335294 -0.6796577 0 -0.7335294 -0.6796577 0 -0.5326272 -0.84635 0 -0.5326272 -0.84635 0 -0.295379 -0.9553801 0 -0.295379 -0.9553801 0 -0.0381089 -0.9992736 0 -0.0381089 -0.9992736 0 0.2217963 -0.975093 0 0.2217963 -0.975093 0 0.4666672 -0.884433 0 0.4666672 -0.884433 0 0.6796638 -0.7335238 0 0.6796638 -0.7335238 0 0.846351 -0.5326255 0 0.846351 -0.5326255 0 0.9553639 -0.2954317 0 0.9553639 -0.2954317 0 0.9992734 -0.03811267 0 0.9992734 -0.03811267 0 0.9750743 0.2218785 0 0.9750743 0.2218785 0 0.8844347 0.4666639 0 0.8844347 0.4666639 0 0.7335612 0.6796234 0 0.7335612 0.6796234 0 0.5326238 0.8463521 0 0.5326238 0.8463521 0 0.2953822 0.9553792 0 0.2953822 0.9553792 0 0.03811697 0.9992733 0 0.03811697 0.9992733 0 -0.221796 0.9750931 0 -0.221796 0.9750931 0 -0.4666744 0.8844292 0 -0.4666744 0.8844292 0 -0.6796646 0.733523 0 -0.6796646 0.733523 0 -0.846351 0.5326255 0 -0.846351 0.5326255 0 -0.9553635 0.2954327 0 -0.9553635 0.2954327 0 -0.9992731 0.03812075 0 -0.9992731 0.03812075 0 -0.9750742 -0.2218789 0 -0.9750742 -0.2218789 0 -0.884431 -0.466671 0 -0.884431 -0.466671 0 -0.733559 -0.6796258 0 -0.733559 -0.6796258 0 0.1185074 0.1883103 0.9749334 0.1185074 0.1883103 0.9749334 0.2310912 0.3672078 0.9009746 0.2310912 0.3672078 0.9009746 0.3320851 0.5276888 0.7818338 0.3320851 0.5276888 0.7818338 0.4164412 0.6617322 0.6234479 0.4164412 0.6617322 0.6234479 0.4798755 0.7625303 0.4338975 0.4798755 0.7625303 0.4338975 0.5192672 0.8251245 0.2225559 0.5192672 0.8251245 0.2225559 0.5192672 0.8251245 0.2225559 0.5192672 0.8251245 0.2225559 0.4798755 0.7625303 0.4338975 0.4798755 0.7625303 0.4338975 0.4164412 0.6617322 0.6234479 0.4164412 0.6617322 0.6234479 0.3320851 0.5276888 0.7818338 0.3320851 0.5276888 0.7818338 0.2310912 0.3672078 0.9009746 0.2310912 0.3672078 0.9009746 0.1185074 0.1883103 0.9749334 0.1185074 0.1883103 0.9749334 -0.5326255 -0.846351 0 -0.5326255 -0.846351 0 -0.2954328 -0.9553635 0 -0.2954328 -0.9553635 0 -0.03809344 -0.9992742 0 -0.03809344 -0.9992742 0 0.2218374 -0.9750837 0 0.2218374 -0.9750837 0 0.4666502 -0.884442 0 0.4666502 -0.884442 0 0.6796647 -0.7335229 0 0.6796647 -0.7335229 0 0.846351 -0.5326255 0 0.846351 -0.5326255 0 0.9553635 -0.2954328 0 0.9553635 -0.2954328 0 0.9992742 -0.03809344 0 0.9992742 -0.03809344 0 0.9750837 0.2218374 0 0.9750837 0.2218374 0 0.884442 0.4666502 0 0.884442 0.4666502 0 0.7335229 0.6796647 0 0.7335229 0.6796647 0 0.5326255 0.846351 0 0.5326255 0.846351 0 0.2954321 0.9553637 0 0.2954321 0.9553637 0 0.03808805 0.9992744 0 0.03808805 0.9992744 0 -0.2218434 0.9750823 0 -0.2218434 0.9750823 0 -0.4666516 0.8844412 0 -0.4666516 0.8844412 0 -0.6796577 0.7335294 0 -0.6796577 0.7335294 0 -0.846351 0.5326255 0 -0.846351 0.5326255 0 -0.9553663 0.2954238 0 -0.9553663 0.2954238 0 -0.9992741 0.03809496 0 -0.9992741 0.03809496 0 -0.975085 -0.2218314 0 -0.975085 -0.2218314 0 -0.8844445 -0.4666455 0 -0.8844445 -0.4666455 0 -0.7335234 -0.6796642 0 -0.7335234 -0.6796642 0 -0.5326272 -0.84635 0 -0.5326272 -0.84635 0 -0.295379 -0.9553801 0 -0.295379 -0.9553801 0 -0.0381089 -0.9992736 0 -0.0381089 -0.9992736 0 0.2217963 -0.975093 0 0.2217963 -0.975093 0 0.4666672 -0.884433 0 0.4666672 -0.884433 0 0.6796638 -0.7335238 0 0.6796638 -0.7335238 0 0.846351 -0.5326255 0 0.846351 -0.5326255 0 0.9553639 -0.2954317 0 0.9553639 -0.2954317 0 0.9992734 -0.03811267 0 0.9992734 -0.03811267 0 0.9750743 0.2218785 0 0.9750743 0.2218785 0 0.8844347 0.4666639 0 0.8844347 0.4666639 0 0.7335612 0.6796234 0 0.7335612 0.6796234 0 0.5326238 0.8463521 0 0.5326238 0.8463521 0 0.2953822 0.9553792 0 0.2953822 0.9553792 0 0.03811697 0.9992733 0 0.03811697 0.9992733 0 -0.221796 0.9750931 0 -0.221796 0.9750931 0 -0.4666744 0.8844292 0 -0.4666744 0.8844292 0 -0.6796646 0.733523 0 -0.6796646 0.733523 0 -0.846351 0.5326255 0 -0.846351 0.5326255 0 -0.9553635 0.2954327 0 -0.9553635 0.2954327 0 -0.9992731 0.03812075 0 -0.9992731 0.03812075 0 -0.9750742 -0.2218789 0 -0.9750742 -0.2218789 0 -0.884431 -0.466671 0 -0.884431 -0.466671 0 -0.733559 -0.6796258 0 -0.733559 -0.6796258 0</float_array>
          <technique_common>
            <accessor count="600" source="#normals-array-array" stride="3">
              <param type="float" name="X"/>
              <param type="float" name="Y"/>
              <param type="float" name="Z"/>
            </accessor>
          </technique_common>
        </source>
        <vertices id="verts-array-vertices">
          <input semantic="POSITION" source="#verts-array"/>
        </vertices>
        <triangles count="612" material="material0">
          <input offset="0" semantic="VERTEX" source="#verts-array-vertices"/>
          <input offset="1" semantic="NORMAL" source="#normals-array"/>
          <p>0 0 1 1 2 2 2 2 1 1 3 3 4 4 3 3 1 1 3 3 4 4 5 5 5 5 4 4 6 6 7 7 6 6 4 4 6 6 7 7 8 8 9 9 10 10 11 11 12 12 11 11 10 10 11 11 12 12 13 13 14 14 15 15 16 16 17 17 16 16 15 15 18 18 19 19 20 20 21 21 20 20 19 19 20 20 21 21 22 22 23 23 24 24 25 25 26 26 27 27 22 22 28 28 20 20 29 29 22 22 29 29 20 20 29 29 22 22 30 30 27 27 30 30 22 22 8 8 7 7 31 31 32 32 31 31 7 7 31 31 32 32 33 33 34 34 33 33 32 32 33 33 34 34 35 35 36 36 37 37 38 38 39 39 38 38 37 37 38 38 39 39 9 9 40 40 9 9 39 39 9 9 40 40 10 10 41 41 42 42 43 43 44 44 43 43 42 42 43 43 44 44 36 36 45 45 36 36 44 44 36 36 45 45 37 37 41 41 15 15 42 42 14 14 42 42 15 15 42 42 14 14 46 46 47 47 46 46 14 14 46 46 47 47 48 48 49 49 50 50 46 46 51 51 46 46 50 50 51 51 52 52 46 46 53 53 46 46 52 52 46 46 53 53 20 20 54 54 20 20 53 53 20 20 54 54 18 18 2 2 55 55 0 0 56 56 0 0 55 55 0 0 56 56 57 57 58 58 57 57 56 56 57 57 58 58 59 59 60 60 59 59 58 58 59 59 60 60 61 61 35 35 34 34 62 62 63 63 62 62 34 34 62 62 63 63 64 64 65 65 64 64 63 63 64 64 65 65 66 66 67 67 66 66 65 65 66 66 67 67 24 24 68 68 24 24 67 67 24 24 68 68 25 25 69 69 70 70 71 71 15 15 72 72 17 17 73 73 17 17 72 72 17 17 73 73 74 74 75 75 76 76 77 77 78 78 77 77 76 76 48 48 79 79 46 46 80 80 46 46 79 79 46 46 80 80 81 81 28 28 82 82 20 20 83 83 20 20 82 82 20 20 83 83 84 84 61 61 84 84 83 83 84 84 61 61 85 85 60 60 85 85 61 61 86 86 87 87 88 88 89 89 88 88 87 87 88 88 89 89 90 90 91 91 90 90 89 89 90 90 91 91 92 92 93 93 92 92 91 91 22 22 94 94 26 26 95 95 26 26 94 94 26 26 95 95 96 96 97 97 96 96 95 95 96 96 97 97 71 71 98 98 71 71 97 97 71 71 98 98 69 69 99 99 100 100 23 23 101 101 23 23 100 100 23 23 101 101 77 77 102 102 77 77 101 101 77 77 102 102 75 75 12 12 103 103 13 13 104 104 13 13 103 103 13 13 104 104 105 105 106 106 105 105 104 104 105 105 106 106 107 107 49 49 46 46 108 108 81 81 108 108 46 46 108 108 81 81 91 91 109 109 91 91 81 81 91 91 109 109 93 93 110 110 111 111 88 88 112 112 88 88 111 111 88 88 112 112 86 86 110 110 113 113 111 111 114 114 111 111 113 113 111 111 114 114 115 115 74 74 116 116 17 17 117 117 17 17 116 116 17 17 117 117 118 118 119 119 118 118 117 117 118 118 119 119 102 102 120 120 102 102 119 119 102 102 120 120 75 75 78 78 121 121 77 77 122 122 77 77 121 121 77 77 122 122 123 123 124 124 123 123 122 122 106 106 125 125 107 107 126 126 107 107 125 125 107 107 126 126 127 127 128 128 127 127 126 126 127 127 128 128 124 124 129 129 124 124 128 128 124 124 129 129 123 123 25 25 130 130 23 23 71 71 23 23 130 130 23 23 71 71 115 115 70 70 115 115 71 71 114 114 131 131 115 115 132 132 115 115 131 131 115 115 132 132 23 23 133 133 23 23 132 132 23 23 133 133 99 99 134 134 135 135 136 136 137 137 136 136 135 135 138 138 139 139 134 134 137 137 140 140 136 136 141 141 136 136 140 140 136 136 141 141 142 142 143 143 144 144 145 145 139 139 146 146 134 134 147 147 134 134 146 146 134 134 147 147 135 135 148 148 149 149 143 143 150 150 143 143 149 149 143 143 150 150 151 151 151 151 152 152 143 143 153 153 143 143 152 152 143 143 153 153 134 134 154 154 134 134 153 153 134 134 154 154 138 138 142 142 155 155 136 136 156 156 136 136 155 155 136 136 156 156 157 157 158 158 159 159 160 160 161 161 160 160 159 159 160 160 161 161 162 162 163 163 162 162 161 161 164 164 165 165 166 166 167 167 166 166 165 165 166 166 167 167 168 168 168 168 167 167 169 169 170 170 169 169 167 167 169 169 170 170 171 171 171 171 172 172 169 169 173 173 169 169 172 172 169 169 173 173 174 174 173 173 175 175 174 174 136 136 174 174 175 175 174 174 136 136 160 160 157 157 160 160 136 136 160 160 157 157 158 158 176 176 177 177 163 163 178 178 163 163 177 177 163 163 178 178 162 162 175 175 179 179 136 136 180 180 136 136 179 179 136 136 180 180 181 181 182 182 181 181 180 180 145 145 183 183 143 143 184 184 143 143 183 183 143 143 184 184 148 148 185 185 148 148 184 184 148 148 185 185 186 186 186 186 187 187 148 148 188 188 148 148 187 187 148 148 188 188 189 189 190 190 189 189 188 188 189 189 190 190 163 163 191 191 163 163 190 190 163 163 191 191 176 176 182 182 192 192 181 181 193 193 181 181 192 192 181 181 193 193 194 194 195 195 194 194 193 193 196 196 197 197 198 198 199 199 198 198 197 197 198 198 199 199 195 195 200 200 195 195 199 199 195 195 200 200 194 194 201 201 202 202 203 203 204 204 203 203 202 202 203 203 204 204 196 196 205 205 196 196 204 204 196 196 205 205 197 197 164 164 206 206 165 165 207 207 165 165 206 206 165 165 207 207 208 208 209 209 210 210 211 211 212 212 211 211 210 210 211 211 212 212 213 213 214 214 213 213 212 212 213 213 214 214 215 215 216 216 217 217 218 218 219 219 218 218 217 217 218 218 219 219 201 201 220 220 201 201 219 219 201 201 220 220 202 202 209 209 165 165 210 210 208 208 210 210 165 165 210 210 208 208 143 143 221 221 143 143 208 208 143 143 221 221 144 144 214 214 222 222 215 215 223 223 215 215 222 222 215 215 223 223 224 224 225 225 224 224 223 223 224 224 225 225 216 216 226 226 216 216 225 225 216 216 226 226 217 217 227 227 228 228 229 229 230 230 231 231 232 232 230 230 232 232 229 229 233 233 229 229 232 232 229 229 233 233 234 234 234 234 235 235 229 229 236 236 229 229 235 235 229 229 236 236 237 237 238 238 227 227 239 239 229 229 239 239 227 227 239 239 229 229 240 240 237 237 240 240 229 229 238 238 241 241 227 227 242 242 227 227 241 241 227 227 242 242 243 243 243 243 244 244 227 227 245 245 227 227 244 244 227 227 245 245 246 246 229 229 228 228 247 247 229 229 247 247 248 248 249 249 248 248 247 247 248 248 249 249 250 250 251 251 250 250 249 249 250 250 251 251 252 252 253 253 252 252 251 251 252 252 253 253 254 254 255 255 254 254 253 253 254 254 255 255 256 256 257 257 256 256 255 255 256 256 257 257 258 258 259 259 258 258 257 257 258 258 259 259 260 260 261 261 260 260 259 259 260 260 261 261 262 262 263 263 262 262 261 261 262 262 263 263 264 264 265 265 264 264 263 263 264 264 265 265 266 266 267 267 266 266 265 265 266 266 267 267 268 268 269 269 268 268 267 267 268 268 269 269 270 270 271 271 270 270 269 269 270 270 271 271 272 272 273 273 272 272 271 271 272 272 273 273 274 274 275 275 274 274 273 273 274 274 275 275 276 276 277 277 276 276 275 275 276 276 277 277 278 278 279 279 278 278 277 277 278 278 279 279 280 280 281 281 280 280 279 279 280 280 281 281 282 282 283 283 284 284 282 282 285 285 282 282 284 284 282 282 285 285 286 286 287 287 286 286 285 285 282 282 288 288 289 289 289 289 290 290 282 282 291 291 282 282 290 290 282 282 291 291 283 283 281 281 292 292 282 282 293 293 282 282 292 292 282 282 293 293 288 288 281 281 294 294 292 292 295 295 292 292 294 294 292 292 295 295 296 296 297 297 298 298 299 299 296 296 295 295 299 299 300 300 299 299 295 295 299 299 300 300 297 297 286 286 287 287 301 301 286 286 301 301 302 302 303 303 302 302 301 301 302 302 303 303 304 304 305 305 304 304 303 303 304 304 305 305 306 306 307 307 306 306 305 305 306 306 307 307 308 308 309 309 308 308 307 307 308 308 309 309 310 310 311 311 310 310 309 309 310 310 311 311 312 312 313 313 312 312 311 311 312 312 313 313 314 314 315 315 314 314 313 313 314 314 315 315 316 316 317 317 316 316 315 315 316 316 317 317 318 318 319 319 318 318 317 317 318 318 319 319 320 320 321 321 320 320 319 319 320 320 321 321 322 322 323 323 322 322 321 321 322 322 323 323 324 324 325 325 324 324 323 323 324 324 325 325 326 326 327 327 326 326 325 325 326 326 327 327 328 328 329 329 328 328 327 327 328 328 329 329 330 330 331 331 330 330 329 329 330 330 331 331 332 332 333 333 332 332 331 331 332 332 333 333 334 334 231 231 334 334 333 333 334 334 231 231 230 230 335 335 336 336 337 337 338 338 337 337 336 336 339 339 340 340 341 341 342 342 343 343 344 344 344 344 343 343 345 345 346 346 345 345 343 343 345 345 346 346 347 347 347 347 346 346 348 348 349 349 348 348 346 346 348 348 349 349 350 350 340 340 339 339 351 351 352 352 351 351 339 339 351 351 352 352 353 353 344 344 354 354 342 342 355 355 342 342 354 354 342 342 355 355 356 356 357 357 356 356 355 355 356 356 357 357 358 358 359 359 358 358 357 357 358 358 359 359 360 360 361 361 362 362 352 352 363 363 352 352 362 362 352 352 363 363 353 353 364 364 365 365 366 366 339 339 366 366 365 365 366 366 339 339 367 367 341 341 367 367 339 339 350 350 349 349 368 368 369 369 368 368 349 349 368 368 369 369 370 370 371 371 370 370 369 369 370 370 371 371 372 372 372 372 371 371 373 373 374 374 373 373 371 371 373 373 374 374 375 375 376 376 375 375 374 374 375 375 376 376 377 377 378 378 377 377 376 376 377 377 378 378 361 361 379 379 361 361 378 378 361 361 379 379 362 362 364 364 380 380 365 365 381 381 365 365 380 380 365 365 381 381 382 382 360 360 382 382 381 381 382 382 360 360 383 383 359 359 383 383 360 360 384 384 385 385 386 386 387 387 386 386 385 385 386 386 387 387 388 388 389 389 388 388 387 387 388 388 389 389 390 390 391 391 390 390 389 389 390 390 391 391 392 392 393 393 392 392 391 391 392 392 393 393 394 394 395 395 394 394 393 393 394 394 395 395 396 396 397 397 396 396 395 395 396 396 397 397 398 398 399 399 398 398 397 397 398 398 399 399 400 400 401 401 400 400 399 399 400 400 401 401 402 402 403 403 402 402 401 401 402 402 403 403 404 404 405 405 404 404 403 403 404 404 405 405 406 406 407 407 406 406 405 405 406 406 407 407 408 408 409 409 408 408 407 407 408 408 409 409 410 410 411 411 410 410 409 409 410 410 411 411 412 412 413 413 412 412 411 411 412 412 413 413 414 414 415 415 414 414 413 413 414 414 415 415 416 416 417 417 416 416 415 415 416 416 417 417 418 418 419 419 418 418 417 417 418 418 419 419 420 420 421 421 420 420 419 419 420 420 421 421 422 422 423 423 422 422 421 421 422 422 423 423 424 424 425 425 424 424 423 423 424 424 425 425 426 426 427 427 426 426 425 425 426 426 427 427 428 428 429 429 428 428 427 427 428 428 429 429 430 430 431 431 430 430 429 429 430 430 431 431 384 384 385 385 384 384 431 431 432 432 433 433 434 434 435 435 434 434 433 433 434 434 435 435 436 436 437 437 436 436 435 435 436 436 437 437 438 438 439 439 438 438 437 437 438 438 439 439 440 440 441 441 440 440 439 439 440 440 441 441 442 442 443 443 442 442 441 441 442 442 443 443 444 444 445 445 444 444 443 443 444 444 445 445 446 446 447 447 446 446 445 445 446 446 447 447 448 448 449 449 448 448 447 447 448 448 449 449 450 450 451 451 450 450 449 449 450 450 451 451 452 452 453 453 452 452 451 451 452 452 453 453 454 454 455 455 454 454 453 453 454 454 455 455 456 456 457 457 456 456 455 455 456 456 457 457 458 458 459 459 458 458 457 457 458 458 459 459 460 460 461 461 460 460 459 459 460 460 461 461 462 462 463 463 462 462 461 461 462 462 463 463 464 464 465 465 464 464 463 463 464 464 465 465 466 466 467 467 466 466 465 465 466 466 467 467 468 468 469 469 468 468 467 467 468 468 469 469 470 470 471 471 470 470 469 469 470 470 471 471 472 472 473 473 472 472 471 471 472 472 473 473 474 474 475 475 474 474 473 473 474 474 475 475 476 476 477 477 476 476 475 475 476 476 477 477 478 478 479 479 478 478 477 477 478 478 479 479 432 432 433 433 432 432 479 479 134 134 136 136 480 480 134 134 480 480 481 481 482 482 481 481 480 480 481 481 482 482 483 483 484 484 483 483 482 482 483 483 484 484 485 485 486 486 485 485 484 484 485 485 486 486 487 487 488 488 487 487 486 486 487 487 488 488 489 489 490 490 489 489 488 488 489 489 490 490 491 491 335 335 491 491 490 490 491 491 335 335 337 337 338 338 336 336 492 492 493 493 492 492 336 336 492 492 493 493 494 494 495 495 494 494 493 493 494 494 495 495 496 496 497 497 496 496 495 495 496 496 497 497 498 498 499 499 498 498 497 497 498 498 499 499 500 500 501 501 500 500 499 499 500 500 501 501 502 502 503 503 502 502 501 501 502 502 503 503 339 339 352 352 339 339 503 503 504 504 505 505 506 506 507 507 506 506 505 505 506 506 507 507 508 508 509 509 508 508 507 507 508 508 509 509 510 510 511 511 510 510 509 509 510 510 511 511 512 512 513 513 512 512 511 511 512 512 513 513 514 514 515 515 514 514 513 513 514 514 515 515 516 516 517 517 516 516 515 515 516 516 517 517 518 518 519 519 518 518 517 517 518 518 519 519 520 520 521 521 520 520 519 519 520 520 521 521 522 522 523 523 522 522 521 521 522 522 523 523 524 524 525 525 524 524 523 523 524 524 525 525 526 526 527 527 526 526 525 525 526 526 527 527 528 528 529 529 528 528 527 527 528 528 529 529 530 530 531 531 530 530 529 529 530 530 531 531 532 532 533 533 532 532 531 531 532 532 533 533 534 534 535 535 534 534 533 533 534 534 535 535 536 536 537 537 536 536 535 535 536 536 537 537 538 538 539 539 538 538 537 537 538 538 539 539 540 540 541 541 540 540 539 539 540 540 541 541 542 542 543 543 542 542 541 541 542 542 543 543 544 544 545 545 544 544 543 543 544 544 545 545 546 546 547 547 546 546 545 545 546 546 547 547 548 548 549 549 548 548 547 547 548 548 549 549 550 550 551 551 550 550 549 549 550 550 551 551 504 504 505 505 504 504 551 551 552 552 553 553 554 554 555 555 554 554 553 553 554 554 555 555 556 556 557 557 556 556 555 555 556 556 557 557 558 558 559 559 558 558 557 557 558 558 559 559 560 560 561 561 560 560 559 559 560 560 561 561 562 562 563 563 562 562 561 561 562 562 563 563 564 564 565 565 564 564 563 563 564 564 565 565 566 566 567 567 566 566 565 565 566 566 567 567 568 568 569 569 568 568 567 567 568 568 569 569 570 570 571 571 570 570 569 569 570 570 571 571 572 572 573 573 572 572 571 571 572 572 573 573 574 574 575 575 574 574 573 573 574 574 575 575 576 576 577 577 576 576 575 575 576 576 577 577 578 578 579 579 578 578 577 577 578 578 579 579 580 580 581 581 580 580 579 579 580 580 581 581 582 582 583 583 582 582 581 581 582 582 583 583 584 584 585 585 584 584 583 583 584 584 585 585 586 586 587 587 586 586 585 585 586 586 587 587 588 588 589 589 588 588 587 587 588 588 589 589 590 590 591 591 590 590 589 589 590 590 591 591 592 592 593 593 592 592 591 591 592 592 593 593 594 594 595 595 594 594 593 593 594 594 595 595 596 596 597 597 596 596 595 595 596 596 597 597 598 598 599 599 598 598 597 597 598 598 599 599 552 552 553 553 552 552 599 599</p>
        </triangles>
      </mesh>
    </geometry>
  </library_geometries>
  <library_materials>
    <material id="68388901d5424ec1ab71bfd882a02a71" name="defaultmaterial">
      <instance_effect url="#62dc42fdb07e4fb389373f98b8117784"/>
    </material>
  </library_materials>
  <library_visual_scenes>
    <visual_scene id="scene">
      <node id="node0" name="node0">
        <instance_geometry url="#32515483b0274c94835c23bc7cccba71">
          <bind_material>
            <technique_common>
              <instance_material symbol="material0" target="#68388901d5424ec1ab71bfd882a02a71"/>
            </technique_common>
          </bind_material>
        </instance_geometry>
      </node>
    </visual_scene>
  </library_visual_scenes>
  <scene>
    <instance_visual_scene url="#scene"/>
  </scene>
</COLLADA>
